  0
SECTION
  2
HEADER
  9
$ACADVER
  1
AC1015
  9
$ACADMAINTVER
 70
     6
  9
$DWGCODEPAGE
  3
ANSI_1254
  9
$INSBASE
 10
0.0
 20
0.0
 30
0.0
  9
$EXTMIN
 10
-97.5
 20
-97.5
 30
0.0
  9
$EXTMAX
 10
97.5
 20
97.5
 30
0.0
  9
$LIMMIN
 10
0.0
 20
0.0
  9
$LIMMAX
 10
420.0
 20
297.0
  9
$ORTHOMODE
 70
     0
  9
$REGENMODE
 70
     1
  9
$FILLMODE
 70
     1
  9
$QTEXTMODE
 70
     0
  9
$MIRRTEXT
 70
     1
  9
$LTSCALE
 40
1.0
  9
$ATTMODE
 70
     1
  9
$TEXTSIZE
 40
3.5
  9
$TRACEWID
 40
1.0
  9
$TEXTSTYLE
  7
Standard
  9
$CLAYER
  8
0
  9
$CELTYPE
  6
ByLayer
  9
$CECOLOR
 62
   256
  9
$CELTSCALE
 40
1.0
  9
$DISPSILH
 70
     0
  9
$DIMSCALE
 40
1.0
  9
$DIMASZ
 40
3.302
  9
$DIMEXO
 40
0.0
  9
$DIMDLI
 40
3.75
  9
$DIMRND
 40
0.0
  9
$DIMDLE
 40
0.0
  9
$DIMEXE
 40
1.0
  9
$DIMTP
 40
0.0
  9
$DIMTM
 40
0.0
  9
$DIMTXT
 40
3.5
  9
$DIMCEN
 40
2.5
  9
$DIMTSZ
 40
0.0
  9
$DIMTOL
 70
     0
  9
$DIMLIM
 70
     0
  9
$DIMTIH
 70
     1
  9
$DIMTOH
 70
     1
  9
$DIMSE1
 70
     0
  9
$DIMSE2
 70
     0
  9
$DIMTAD
 70
     1
  9
$DIMZIN
 70
     1
  9
$DIMBLK
  1

  9
$DIMASO
 70
     1
  9
$DIMSHO
 70
     1
  9
$DIMPOST
  1

  9
$DIMAPOST
  1

  9
$DIMALT
 70
     0
  9
$DIMALTD
 70
     3
  9
$DIMALTF
 40
0.0393700787
  9
$DIMLFAC
 40
1.0
  9
$DIMTOFL
 70
     1
  9
$DIMTVP
 40
0.0
  9
$DIMTIX
 70
     0
  9
$DIMSOXD
 70
     0
  9
$DIMSAH
 70
     0
  9
$DIMBLK1
  1

  9
$DIMBLK2
  1

  9
$DIMSTYLE
  2
ISO-25
  9
$DIMCLRD
 70
     0
  9
$DIMCLRE
 70
     0
  9
$DIMCLRT
 70
     0
  9
$DIMTFAC
 40
1.0
  9
$DIMGAP
 40
1.524
  9
$DIMJUST
 70
     0
  9
$DIMSD1
 70
     0
  9
$DIMSD2
 70
     0
  9
$DIMTOLJ
 70
     0
  9
$DIMTZIN
 70
     1
  9
$DIMALTZ
 70
     0
  9
$DIMALTTZ
 70
     0
  9
$DIMUPT
 70
     0
  9
$DIMDEC
 70
     2
  9
$DIMTDEC
 70
     2
  9
$DIMALTU
 70
     2
  9
$DIMALTTD
 70
     3
  9
$DIMTXSTY
  7
Standard
  9
$DIMAUNIT
 70
     0
  9
$DIMADEC
 70
     2
  9
$DIMALTRND
 40
0.0
  9
$DIMAZIN
 70
     0
  9
$DIMDSEP
 70
    44
  9
$DIMATFIT
 70
     3
  9
$DIMFRAC
 70
     0
  9
$DIMLDRBLK
  1

  9
$DIMLUNIT
 70
     2
  9
$DIMLWD
 70
    -2
  9
$DIMLWE
 70
    -2
  9
$DIMTMOVE
 70
     0
  9
$LUNITS
 70
     2
  9
$LUPREC
 70
     2
  9
$SKETCHINC
 40
1.0
  9
$FILLETRAD
 40
0.0
  9
$AUNITS
 70
     0
  9
$AUPREC
 70
     2
  9
$MENU
  1
.
  9
$ELEVATION
 40
0.0
  9
$PELEVATION
 40
0.0
  9
$THICKNESS
 40
0.0
  9
$LIMCHECK
 70
     0
  9
$CHAMFERA
 40
0.0
  9
$CHAMFERB
 40
0.0
  9
$CHAMFERC
 40
0.0
  9
$CHAMFERD
 40
0.0
  9
$SKPOLY
 70
     0
  9
$TDCREATE
 40
2461115.027870452
  9
$TDUCREATE
 40
2461114.902870452
  9
$TDUPDATE
 40
2461115.027895347
  9
$TDUUPDATE
 40
2461114.902895347
  9
$TDINDWG
 40
0.0000000116
  9
$TDUSRTIMER
 40
0.0000000116
  9
$USRTIMER
 70
     1
  9
$ANGBASE
 50
0.0
  9
$ANGDIR
 70
     0
  9
$PDMODE
 70
     0
  9
$PDSIZE
 40
-1.0
  9
$PLINEWID
 40
0.0
  9
$SPLFRAME
 70
     0
  9
$SPLINETYPE
 70
     6
  9
$SPLINESEGS
 70
     8
  9
$HANDSEED
  5
1A7
  9
$SURFTAB1
 70
     6
  9
$SURFTAB2
 70
     6
  9
$SURFTYPE
 70
     6
  9
$SURFU
 70
     6
  9
$SURFV
 70
     6
  9
$UCSBASE
  2

  9
$UCSNAME
  2

  9
$UCSORG
 10
0.0
 20
0.0
 30
0.0
  9
$UCSXDIR
 10
1.0
 20
0.0
 30
0.0
  9
$UCSYDIR
 10
0.0
 20
1.0
 30
0.0
  9
$UCSORTHOREF
  2

  9
$UCSORTHOVIEW
 70
     0
  9
$UCSORGTOP
 10
0.0
 20
0.0
 30
0.0
  9
$UCSORGBOTTOM
 10
0.0
 20
0.0
 30
0.0
  9
$UCSORGLEFT
 10
0.0
 20
0.0
 30
0.0
  9
$UCSORGRIGHT
 10
0.0
 20
0.0
 30
0.0
  9
$UCSORGFRONT
 10
0.0
 20
0.0
 30
0.0
  9
$UCSORGBACK
 10
0.0
 20
0.0
 30
0.0
  9
$PUCSBASE
  2

  9
$PUCSNAME
  2

  9
$PUCSORG
 10
0.0
 20
0.0
 30
0.0
  9
$PUCSXDIR
 10
1.0
 20
0.0
 30
0.0
  9
$PUCSYDIR
 10
0.0
 20
1.0
 30
0.0
  9
$PUCSORTHOREF
  2

  9
$PUCSORTHOVIEW
 70
     0
  9
$PUCSORGTOP
 10
0.0
 20
0.0
 30
0.0
  9
$PUCSORGBOTTOM
 10
0.0
 20
0.0
 30
0.0
  9
$PUCSORGLEFT
 10
0.0
 20
0.0
 30
0.0
  9
$PUCSORGRIGHT
 10
0.0
 20
0.0
 30
0.0
  9
$PUCSORGFRONT
 10
0.0
 20
0.0
 30
0.0
  9
$PUCSORGBACK
 10
0.0
 20
0.0
 30
0.0
  9
$USERI1
 70
     0
  9
$USERI2
 70
     0
  9
$USERI3
 70
     0
  9
$USERI4
 70
     0
  9
$USERI5
 70
     0
  9
$USERR1
 40
0.0
  9
$USERR2
 40
0.0
  9
$USERR3
 40
0.0
  9
$USERR4
 40
0.0
  9
$USERR5
 40
0.0
  9
$WORLDVIEW
 70
     1
  9
$SHADEDGE
 70
     3
  9
$SHADEDIF
 70
    70
  9
$TILEMODE
 70
     1
  9
$MAXACTVP
 70
    64
  9
$PINSBASE
 10
0.0
 20
0.0
 30
0.0
  9
$PLIMCHECK
 70
     0
  9
$PEXTMIN
 10
1.0000000000E+20
 20
1.0000000000E+20
 30
1.0000000000E+20
  9
$PEXTMAX
 10
-1.0000000000E+20
 20
-1.0000000000E+20
 30
-1.0000000000E+20
  9
$PLIMMIN
 10
0.0
 20
0.0
  9
$PLIMMAX
 10
420.0
 20
297.0
  9
$UNITMODE
 70
     0
  9
$VISRETAIN
 70
     1
  9
$PLINEGEN
 70
     0
  9
$PSLTSCALE
 70
     1
  9
$TREEDEPTH
 70
  3020
  9
$CMLSTYLE
  2
Standard
  9
$CMLJUST
 70
     0
  9
$CMLSCALE
 40
20.0
  9
$PROXYGRAPHICS
 70
     1
  9
$MEASUREMENT
 70
     1
  9
$CELWEIGHT
370
    -1
  9
$ENDCAPS
280
     0
  9
$JOINSTYLE
280
     0
  9
$LWDISPLAY
290
     1
  9
$INSUNITS
 70
     4
  9
$HYPERLINKBASE
  1

  9
$STYLESHEET
  1

  9
$XEDIT
290
     1
  9
$CEPSNTYPE
380
     0
  9
$PSTYLEMODE
290
     1
  9
$FINGERPRINTGUID
  2
{4dca909b-12dc-48c5-9d6f-3f11ddd5c17a}
  9
$VERSIONGUID
  2
{FAEB1C32-E019-11D5-929B-00C0DF256EC4}
  9
$EXTNAMES
290
     1
  9
$PSVPSCALE
 40
0.0
  9
$OLESTARTUP
290
     0
  0
ENDSEC
  0
SECTION
  2
CLASSES
  0
CLASS
  1
ACDBDICTIONARYWDFLT
  2
AcDbDictionaryWithDefault
  3
ObjectDBX Classes
 90
        0
280
     0
281
     0
  0
CLASS
  1
VISUALSTYLE
  2
AcDbVisualStyle
  3
ObjectDBX Classes
 90
     4095
280
     0
281
     0
  0
CLASS
  1
MATERIAL
  2
AcDbMaterial
  3
ObjectDBX Classes
 90
     1153
280
     0
281
     0
  0
CLASS
  1
SCALE
  2
AcDbScale
  3
ObjectDBX Classes
 90
     1153
280
     0
281
     0
  0
CLASS
  1
TABLESTYLE
  2
AcDbTableStyle
  3
ObjectDBX Classes
 90
     4095
280
     0
281
     0
  0
CLASS
  1
MLEADERSTYLE
  2
AcDbMLeaderStyle
  3
ACDB_MLEADERSTYLE_CLASS
 90
     4095
280
     0
281
     0
  0
CLASS
  1
SUN
  2
AcDbSun
  3
SCENEOE
 90
     1153
280
     0
281
     0
  0
CLASS
  1
ACDBPLACEHOLDER
  2
AcDbPlaceHolder
  3
ObjectDBX Classes
 90
        0
280
     0
281
     0
  0
CLASS
  1
LAYOUT
  2
AcDbLayout
  3
ObjectDBX Classes
 90
        0
280
     0
281
     0
  0
ENDSEC
  0
SECTION
  2
TABLES
  0
TABLE
  2
VPORT
  5
8
330
0
100
AcDbSymbolTable
 70
     1
  0
VPORT
  5
29
330
8
100
AcDbSymbolTableRecord
100
AcDbViewportTableRecord
  2
*Active
 70
     0
 10
0.0
 20
0.0
 11
1.0
 21
1.0
 12
0.0
 22
0.0
 13
0.0
 23
0.0
 14
10.0
 24
10.0
 15
10.0
 25
10.0
 16
0.0
 26
0.0
 36
1.0
 17
0.0
 27
0.0
 37
0.0
 40
198.9
 41
1.0
 42
50.0
 43
0.0
 44
0.0
 50
0.0
 51
0.0
 71
     0
 72
   100
 73
     1
 74
     3
 75
     0
 76
     0
 77
     0
 78
     0
281
     0
 65
     1
110
0.0
120
0.0
130
0.0
111
1.0
121
0.0
131
0.0
112
0.0
122
1.0
132
0.0
 79
     0
146
0.0
  0
ENDTAB
  0
TABLE
  2
LTYPE
  5
5
330
0
100
AcDbSymbolTable
 70
     6
  0
LTYPE
  5
14
330
5
100
AcDbSymbolTableRecord
100
AcDbLinetypeTableRecord
  2
ByBlock
 70
     0
  3

 72
    65
 73
     0
 40
0.0
  0
LTYPE
  5
15
330
5
100
AcDbSymbolTableRecord
100
AcDbLinetypeTableRecord
  2
ByLayer
 70
     0
  3

 72
    65
 73
     0
 40
0.0
  0
LTYPE
  5
16
330
5
100
AcDbSymbolTableRecord
100
AcDbLinetypeTableRecord
  2
Continuous
 70
     0
  3
Solid line
 72
    65
 73
     0
 40
0.0
  0
LTYPE
  5
5E
330
5
100
AcDbSymbolTableRecord
100
AcDbLinetypeTableRecord
  2
HIDDEN
 70
     0
  3
Hidden __ __ __ __ __ __ __ __ __ __ __ __ __ __
 72
    65
 73
     2
 40
1.905
 49
1.27
 74
     0
 49
-0.635
 74
     0
  0
LTYPE
  5
5F
330
5
100
AcDbSymbolTableRecord
100
AcDbLinetypeTableRecord
  2
PHANTOM
 70
     0
  3
Phantom ______  __  __  ______  __  __  ______
 72
    65
 73
     6
 40
12.7
 49
6.35
 74
     0
 49
-1.27
 74
     0
 49
1.27
 74
     0
 49
-1.27
 74
     0
 49
1.27
 74
     0
 49
-1.27
 74
     0
  0
LTYPE
  5
60
330
5
100
AcDbSymbolTableRecord
100
AcDbLinetypeTableRecord
  2
CENTER
 70
     0
  3
Center ____ _ ____ _ ____ _ ____ _ ____ _ ____
 72
    65
 73
     4
 40
10.16
 49
6.35
 74
     0
 49
-1.27
 74
     0
 49
1.27
 74
     0
 49
-1.27
 74
     0
  0
LTYPE
  5
61
330
5
100
AcDbSymbolTableRecord
100
AcDbLinetypeTableRecord
  2
CENTERX2
 70
     0
  3
Center (2x) ________  __  ________  __  _____
 72
    65
 73
     4
 40
20.32
 49
12.7
 74
     0
 49
-2.54
 74
     0
 49
2.54
 74
     0
 49
-2.54
 74
     0
  0
LTYPE
  5
62
330
5
100
AcDbSymbolTableRecord
100
AcDbLinetypeTableRecord
  2
DOT2
 70
     0
  3
Dot (.5x) ........................................
 72
    65
 73
     2
 40
0.635
 49
0.0
 74
     0
 49
-0.635
 74
     0
  0
ENDTAB
  0
TABLE
  2
LAYER
  5
2
330
0
100
AcDbSymbolTable
 70
     1
  0
LAYER
  5
10
330
2
100
AcDbSymbolTableRecord
100
AcDbLayerTableRecord
  2
0
 70
     0
 62
     7
  6
Continuous
370
    -3
390
F
  0
ENDTAB
  0
TABLE
  2
STYLE
  5
3
330
0
100
AcDbSymbolTable
 70
     1
  0
STYLE
  5
11
330
3
100
AcDbSymbolTableRecord
100
AcDbTextStyleTableRecord
  2
Standard
 70
     0
 40
0.0
 41
1.0
 50
0.0
 71
     0
 42
3.5
  3
txt
  4

  0
ENDTAB
  0
TABLE
  2
VIEW
  5
6
330
0
100
AcDbSymbolTable
 70
     0
  0
ENDTAB
  0
TABLE
  2
UCS
  5
7
330
0
100
AcDbSymbolTable
 70
     0
  0
ENDTAB
  0
TABLE
  2
APPID
  5
9
330
0
100
AcDbSymbolTable
 70
     1
  0
APPID
  5
12
330
9
100
AcDbSymbolTableRecord
100
AcDbRegAppTableRecord
  2
ACAD
 70
     0
  0
ENDTAB
  0
TABLE
  2
DIMSTYLE
  5
A
330
0
100
AcDbSymbolTable
 70
     1
100
AcDbDimStyleTable
  0
DIMSTYLE
105
27
330
A
100
AcDbSymbolTableRecord
100
AcDbDimStyleTableRecord
  2
ISO-25
 70
     0
 41
2.5
 42
0.625
 43
3.75
 44
1.25
 73
     0
 74
     0
 77
     1
 78
     8
140
2.5
141
2.5
143
0.0393700787
147
0.625
171
     3
172
     1
178
     0
271
     2
272
     2
274
     3
278
    44
283
     0
284
     8
340
11
  0
ENDTAB
  0
TABLE
  2
BLOCK_RECORD
  5
1
330
0
100
AcDbSymbolTable
 70
     1
  0
BLOCK_RECORD
  5
1F
330
1
100
AcDbSymbolTableRecord
100
AcDbBlockTableRecord
  2
*Model_Space
340
22
  0
BLOCK_RECORD
  5
1B
330
1
100
AcDbSymbolTableRecord
100
AcDbBlockTableRecord
  2
*Paper_Space
340
1E
  0
BLOCK_RECORD
  5
23
330
1
100
AcDbSymbolTableRecord
100
AcDbBlockTableRecord
  2
*Paper_Space0
340
26
  0
ENDTAB
  0
ENDSEC
  0
SECTION
  2
BLOCKS
  0
BLOCK
  5
20
330
1F
100
AcDbEntity
  8
0
100
AcDbBlockBegin
  2
*Model_Space
 70
     0
 10
0.0
 20
0.0
 30
0.0
  3
*Model_Space
  1

  0
ENDBLK
  5
21
330
1F
100
AcDbEntity
  8
0
100
AcDbBlockEnd
  0
BLOCK
  5
1C
330
1B
100
AcDbEntity
 67
     1
  8
0
100
AcDbBlockBegin
  2
*Paper_Space
 70
     0
 10
0.0
 20
0.0
 30
0.0
  3
*Paper_Space
  1

  0
ENDBLK
  5
1D
330
1B
100
AcDbEntity
 67
     1
  8
0
100
AcDbBlockEnd
  0
BLOCK
  5
24
330
23
100
AcDbEntity
  8
0
100
AcDbBlockBegin
  2
*Paper_Space0
 70
     0
 10
0.0
 20
0.0
 30
0.0
  3
*Paper_Space0
  1

  0
ENDBLK
  5
25
330
23
100
AcDbEntity
  8
0
100
AcDbBlockEnd
  0
ENDSEC
  0
SECTION
  2
ENTITIES
  0
LINE
  5
63
330
1F
100
AcDbEntity
  8
0
  6
Continuous
 62
     7
370
    25
100
AcDbLine
 10
-78.7856709862
 20
-8.2503086605
 30
0.0
 11
-82.2317972086
 21
-6.2329660588
 31
0.0
  0
ARC
  5
64
330
1F
100
AcDbEntity
  8
0
  6
Continuous
 62
     7
370
    25
100
AcDbCircle
 10
-80.8064608944
 20
-11.7023237455
 30
0.0
 40
4.000000000000003
100
AcDbArc
 50
290.4431163992
 51
59.6555377936
  0
LINE
  5
65
330
1F
100
AcDbEntity
  8
0
  6
Continuous
 62
     7
370
    25
100
AcDbLine
 10
-79.4093517947
 20
-15.4504014079
 30
0.0
 11
-86.9409028207
 21
-18.2578134792
 31
0.0
  0
ARC
  5
66
330
1F
100
AcDbEntity
  8
0
  6
Continuous
 62
     7
370
    25
100
AcDbCircle
 10
-88.3380119205
 20
-14.5097358167
 30
0.0
 40
4.0
100
AcDbArc
 50
180.0
 51
290.4431163992
  0
LINE
  5
67
330
1F
100
AcDbEntity
  8
0
  6
Continuous
 62
     7
370
    25
100
AcDbLine
 10
-92.3380119205
 20
-14.0
 30
0.0
 11
-92.3380119205
 21
-14.5097358167
 31
0.0
  0
ARC
  5
68
330
1F
100
AcDbEntity
  8
0
  6
Continuous
 62
     7
370
    25
100
AcDbCircle
 10
-83.3380119205
 20
-14.0
 30
0.0
 40
9.0
100
AcDbArc
 50
110.1241969064
 51
180.0
  0
ARC
  5
69
330
1F
100
AcDbEntity
  8
0
  6
Continuous
 62
     7
370
    25
100
AcDbCircle
 10
-85.0582932113
 20
-9.3052548226
 30
0.0
 40
4.000000000000003
100
AcDbArc
 50
69.8758030936
 51
110.1241969064
  0
ARC
  5
6A
330
1F
100
AcDbEntity
  8
0
  6
Continuous
 62
     7
370
    25
100
AcDbCircle
 10
-86.7785745021
 20
-14.0
 30
0.0
 40
8.999999999999998
100
AcDbArc
 50
59.6555377936
 51
69.8758030936
  0
LINE
  5
6B
330
1F
100
AcDbEntity
  8
0
  6
Continuous
 62
     7
370
    25
100
AcDbLine
 10
82.2317972086
 20
6.2329660588
 30
0.0
 11
78.8644406885
 21
8.2041973268
 31
0.0
  0
ARC
  5
6C
330
1F
100
AcDbEntity
  8
0
  6
Continuous
 62
     7
370
    25
100
AcDbCircle
 10
80.8852305967
 20
11.6562124118
 30
0.0
 40
4.000000000000012
100
AcDbArc
 50
110.9065509129
 51
239.6555377936
  0
LINE
  5
6D
330
1F
100
AcDbEntity
  8
0
  6
Continuous
 62
     7
370
    25
100
AcDbLine
 10
79.4578513597
 20
15.3928671341
 30
0.0
 11
86.9106326835
 21
18.2397839916
 31
0.0
  0
ARC
  5
6E
330
1F
100
AcDbEntity
  8
0
  6
Continuous
 62
     7
370
    25
100
AcDbCircle
 10
88.3380119205
 20
14.5031292693
 30
0.0
 40
4.00000000000001
100
AcDbArc
 50
0.0
 51
110.9065509129
  0
LINE
  5
6F
330
1F
100
AcDbEntity
  8
0
  6
Continuous
 62
     7
370
    25
100
AcDbLine
 10
92.3380119205
 20
14.0
 30
0.0
 11
92.3380119205
 21
14.5031292693
 31
0.0
  0
ARC
  5
70
330
1F
100
AcDbEntity
  8
0
  6
Continuous
 62
     7
370
    25
100
AcDbCircle
 10
83.3380119205
 20
14.0
 30
0.0
 40
9.0
100
AcDbArc
 50
290.1241969063
 51
0.0
  0
ARC
  5
71
330
1F
100
AcDbEntity
  8
0
  6
Continuous
 62
     7
370
    25
100
AcDbCircle
 10
85.0582932113
 20
9.3052548226
 30
0.0
 40
4.000000000000003
100
AcDbArc
 50
249.8758030937
 51
290.1241969063
  0
ARC
  5
72
330
1F
100
AcDbEntity
  8
0
  6
Continuous
 62
     7
370
    25
100
AcDbCircle
 10
86.7785745021
 20
14.0
 30
0.0
 40
8.999999999999998
100
AcDbArc
 50
239.6555377936
 51
249.8758030937
  0
LINE
  5
73
330
1F
100
AcDbEntity
  8
0
  6
Continuous
 62
     7
370
    25
100
AcDbLine
 10
79.4298127237
 20
-15.438423697
 30
0.0
 11
86.9409028207
 21
-18.2382088852
 31
0.0
  0
ARC
  5
74
330
1F
100
AcDbEntity
  8
0
  6
Continuous
 62
     7
370
    25
100
AcDbCircle
 10
80.8269218234
 20
-11.6903460346
 30
0.0
 40
3.999999999999995
100
AcDbArc
 50
120.3444622064
 51
249.5568836008
  0
LINE
  5
75
330
1F
100
AcDbEntity
  8
0
  6
Continuous
 62
     7
370
    25
100
AcDbLine
 10
78.8061319152
 20
-8.2383309496
 30
0.0
 11
82.2317972086
 21
-6.2329660588
 31
0.0
  0
ARC
  5
76
330
1F
100
AcDbEntity
  8
0
  6
Continuous
 62
     7
370
    25
100
AcDbCircle
 10
86.7785745021
 20
-14.0
 30
0.0
 40
8.999999999999998
100
AcDbArc
 50
110.1241969064
 51
120.3444622064
  0
ARC
  5
77
330
1F
100
AcDbEntity
  8
0
  6
Continuous
 62
     7
370
    25
100
AcDbCircle
 10
85.0582932113
 20
-9.3052548226
 30
0.0
 40
4.000000000000003
100
AcDbArc
 50
69.8758030936
 51
110.1241969064
  0
ARC
  5
78
330
1F
100
AcDbEntity
  8
0
  6
Continuous
 62
     7
370
    25
100
AcDbCircle
 10
83.3380119205
 20
-14.0
 30
0.0
 40
9.0
100
AcDbArc
 50
0.0
 51
69.8758030936
  0
LINE
  5
79
330
1F
100
AcDbEntity
  8
0
  6
Continuous
 62
     7
370
    25
100
AcDbLine
 10
92.3380119205
 20
-14.4901312228
 30
0.0
 11
92.3380119205
 21
-14.0
 31
0.0
  0
ARC
  5
7A
330
1F
100
AcDbEntity
  8
0
  6
Continuous
 62
     7
370
    25
100
AcDbCircle
 10
88.3380119205
 20
-14.4901312228
 30
0.0
 40
4.000000000000001
100
AcDbArc
 50
249.5568836008
 51
0.0
  0
LINE
  5
7B
330
1F
100
AcDbEntity
  8
0
  6
Continuous
 62
     7
370
    25
100
AcDbLine
 10
-92.3380119205
 20
-36.1163690607
 30
0.0
 11
-92.3380119205
 21
-50.2322418298
 31
0.0
  0
ARC
  5
7C
330
1F
100
AcDbEntity
  8
0
  6
Continuous
 62
     7
370
    25
100
AcDbCircle
 10
-88.3380119205
 20
-36.1163690607
 30
0.0
 40
4.000000000000007
100
AcDbArc
 50
90.0
 51
180.0
  0
LINE
  5
7D
330
1F
100
AcDbEntity
  8
0
  6
Continuous
 62
     7
370
    25
100
AcDbLine
 10
-88.3380119205
 20
-32.1163690607
 30
0.0
 11
-70.8900069095
 21
-32.1163690607
 31
0.0
  0
ARC
  5
7E
330
1F
100
AcDbEntity
  8
0
  6
Continuous
 62
     7
370
    25
100
AcDbCircle
 10
-70.8900069095
 20
-36.1163690607
 30
0.0
 40
4.000000000000008
100
AcDbArc
 50
0.5703003974
 51
90.0
  0
LINE
  5
7F
330
1F
100
AcDbEntity
  8
0
  6
Continuous
 62
     7
370
    25
100
AcDbLine
 10
-66.8902050569
 20
-36.0765552395
 30
0.0
 11
-66.8106904908
 21
-44.0647989973
 31
0.0
  0
ARC
  5
80
330
1F
100
AcDbEntity
  8
0
  6
Continuous
 62
     7
370
    25
100
AcDbCircle
 10
-71.8104428065
 20
-44.1145662738
 30
0.0
 40
5.000000000000028
100
AcDbArc
 50
315.8036590969
 51
0.5703003974
  0
LINE
  5
81
330
1F
100
AcDbEntity
  8
0
  6
Continuous
 62
     7
370
    25
100
AcDbLine
 10
-68.2256671593
 20
-47.6001628596
 30
0.0
 11
-76.8854157555
 21
-56.5063156843
 31
0.0
  0
ARC
  5
82
330
1F
100
AcDbEntity
  8
0
  6
Continuous
 62
     7
370
    25
100
AcDbCircle
 10
-83.3380119205
 20
-50.2322418298
 30
0.0
 40
8.999999999999993
100
AcDbArc
 50
180.0
 51
315.8036590969
  0
LINE
  5
83
330
1F
100
AcDbEntity
  8
0
  6
Continuous
 62
     7
370
    25
100
AcDbLine
 10
-66.8897902857
 20
36.1182242508
 30
0.0
 11
-66.8106904908
 21
44.0647989973
 31
0.0
  0
ARC
  5
84
330
1F
100
AcDbEntity
  8
0
  6
Continuous
 62
     7
370
    25
100
AcDbCircle
 10
-70.8895921383
 20
36.158038072
 30
0.0
 40
4.000000000000001
100
AcDbArc
 50
270.0278054865
 51
359.4296996026
  0
LINE
  5
85
330
1F
100
AcDbEntity
  8
0
  6
Continuous
 62
     7
370
    25
100
AcDbLine
 10
-88.3360707314
 20
32.1495708715
 30
0.0
 11
-70.8876509492
 21
32.158038543
 31
0.0
  0
ARC
  5
86
330
1F
100
AcDbEntity
  8
0
  6
Continuous
 62
     7
370
    25
100
AcDbCircle
 10
-88.3380119205
 20
36.1495704005
 30
0.0
 40
4.000000000000001
100
AcDbArc
 50
180.0
 51
270.0278054865
  0
LINE
  5
87
330
1F
100
AcDbEntity
  8
0
  6
Continuous
 62
     7
370
    25
100
AcDbLine
 10
-92.3380119205
 20
50.2322418298
 30
0.0
 11
-92.3380119205
 21
36.1495704005
 31
0.0
  0
ARC
  5
88
330
1F
100
AcDbEntity
  8
0
  6
Continuous
 62
     7
370
    25
100
AcDbCircle
 10
-83.3380119205
 20
50.2322418298
 30
0.0
 40
9.000000000000007
100
AcDbArc
 50
44.1963409032
 51
180.0
  0
LINE
  5
89
330
1F
100
AcDbEntity
  8
0
  6
Continuous
 62
     7
370
    25
100
AcDbLine
 10
-68.2256671593
 20
47.6001628596
 30
0.0
 11
-76.8854157555
 21
56.5063156843
 31
0.0
  0
ARC
  5
8A
330
1F
100
AcDbEntity
  8
0
  6
Continuous
 62
     7
370
    25
100
AcDbCircle
 10
-71.8104428065
 20
44.1145662738
 30
0.0
 40
4.999999999999996
100
AcDbArc
 50
359.4296996026
 51
44.1963409032
  0
LINE
  5
8B
330
1F
100
AcDbEntity
  8
0
  6
Continuous
 62
     7
370
    25
100
AcDbLine
 10
66.8106904908
 20
-44.0647989973
 30
0.0
 11
66.8904193438
 21
-36.0550274129
 31
0.0
  0
ARC
  5
8C
330
1F
100
AcDbEntity
  8
0
  6
Continuous
 62
     7
370
    25
100
AcDbCircle
 10
70.8902211963
 20
-36.0948412341
 30
0.0
 40
4.000000000000003
100
AcDbArc
 50
90.027813214
 51
179.4296996026
  0
LINE
  5
8D
330
1F
100
AcDbEntity
  8
0
  6
Continuous
 62
     7
370
    25
100
AcDbLine
 10
88.3360701919
 20
-32.086371986
 30
0.0
 11
70.8882794678
 21
-32.0948417054
 31
0.0
  0
ARC
  5
8E
330
1F
100
AcDbEntity
  8
0
  6
Continuous
 62
     7
370
    25
100
AcDbCircle
 10
88.3380119205
 20
-36.0863715148
 30
0.0
 40
4.0
100
AcDbArc
 50
0.0
 51
90.027813214
  0
LINE
  5
8F
330
1F
100
AcDbEntity
  8
0
  6
Continuous
 62
     7
370
    25
100
AcDbLine
 10
92.3380119205
 20
-50.2322418298
 30
0.0
 11
92.3380119205
 21
-36.0863715148
 31
0.0
  0
ARC
  5
90
330
1F
100
AcDbEntity
  8
0
  6
Continuous
 62
     7
370
    25
100
AcDbCircle
 10
83.3380119205
 20
-50.2322418298
 30
0.0
 40
9.00000000000001
100
AcDbArc
 50
224.1963409032
 51
0.0
  0
LINE
  5
91
330
1F
100
AcDbEntity
  8
0
  6
Continuous
 62
     7
370
    25
100
AcDbLine
 10
68.2256671593
 20
-47.6001628596
 30
0.0
 11
76.8854157555
 21
-56.5063156843
 31
0.0
  0
ARC
  5
92
330
1F
100
AcDbEntity
  8
0
  6
Continuous
 62
     7
370
    25
100
AcDbCircle
 10
71.8104428065
 20
-44.1145662738
 30
0.0
 40
5.000000000000014
100
AcDbArc
 50
179.4296996026
 51
224.1963409032
  0
LINE
  5
93
330
1F
100
AcDbEntity
  8
0
  6
Continuous
 62
     7
370
    25
100
AcDbLine
 10
-79.5051725507
 20
15.3501817268
 30
0.0
 11
-86.8951816077
 21
18.2082201121
 31
0.0
  0
ARC
  5
94
330
1F
100
AcDbEntity
  8
0
  6
Continuous
 62
     7
370
    25
100
AcDbCircle
 10
-80.9480028635
 20
11.6194658855
 30
0.0
 40
3.999999999999998
100
AcDbArc
 50
300.3444622064
 51
68.8563428234
  0
LINE
  5
95
330
1F
100
AcDbEntity
  8
0
  6
Continuous
 62
     7
370
    25
100
AcDbLine
 10
-82.2317972086
 20
6.2329660588
 30
0.0
 11
-78.9272129553
 21
8.1674508005
 31
0.0
  0
ARC
  5
96
330
1F
100
AcDbEntity
  8
0
  6
Continuous
 62
     7
370
    25
100
AcDbCircle
 10
-86.7785745021
 20
14.0
 30
0.0
 40
8.999999999999998
100
AcDbArc
 50
290.1241969063
 51
300.3444622064
  0
ARC
  5
97
330
1F
100
AcDbEntity
  8
0
  6
Continuous
 62
     7
370
    25
100
AcDbCircle
 10
-85.0582932113
 20
9.3052548226
 30
0.0
 40
4.000000000000004
100
AcDbArc
 50
249.8758030937
 51
290.1241969063
  0
ARC
  5
98
330
1F
100
AcDbEntity
  8
0
  6
Continuous
 62
     7
370
    25
100
AcDbCircle
 10
-83.3380119205
 20
14.0
 30
0.0
 40
9.0
100
AcDbArc
 50
180.0
 51
249.8758030937
  0
LINE
  5
99
330
1F
100
AcDbEntity
  8
0
  6
Continuous
 62
     7
370
    25
100
AcDbLine
 10
-92.3380119205
 20
14.4775042708
 30
0.0
 11
-92.3380119205
 21
14.0
 31
0.0
  0
ARC
  5
9A
330
1F
100
AcDbEntity
  8
0
  6
Continuous
 62
     7
370
    25
100
AcDbCircle
 10
-88.3380119205
 20
14.4775042708
 30
0.0
 40
4.0
100
AcDbArc
 50
68.8563428234
 51
180.0
  0
ARC
  5
9B
330
1F
100
AcDbEntity
  8
0
  6
Continuous
 62
     7
370
    25
100
AcDbCircle
 10
-11.8349837591
 20
-39.3544214646
 30
0.0
 40
1.500000000000067
100
AcDbArc
 50
9.1223911928
 51
127.994796158
  0
ARC
  5
9C
330
1F
100
AcDbEntity
  8
0
  6
Continuous
 62
     7
370
    25
100
AcDbCircle
 10
-6.3686668212
 20
-38.4766681679
 30
0.0
 40
4.036341004248267
100
AcDbArc
 50
189.1223911928
 51
226.5570126811
  0
ARC
  5
9D
330
1F
100
AcDbEntity
  8
0
  6
Continuous
 62
     7
370
    25
100
AcDbCircle
 10
-11.7157612429
 20
-42.9522816558
 30
0.0
 40
3.000000000000004
100
AcDbArc
 50
0.0
 51
30.9972748528
  0
LINE
  5
9E
330
1F
100
AcDbEntity
  8
0
  6
Continuous
 62
     7
370
    25
100
AcDbLine
 10
-8.7157612429
 20
-42.9522816558
 30
0.0
 11
-8.7157612429
 21
-46.6929152564
 31
0.0
  0
ARC
  5
9F
330
1F
100
AcDbEntity
  8
0
  6
Continuous
 62
     7
370
    25
100
AcDbCircle
 10
-11.7157612429
 20
-46.6929152564
 30
0.0
 40
3.0
100
AcDbArc
 50
290.4278851793
 51
0.0
  0
ARC
  5
A0
330
1F
100
AcDbEntity
  8
0
  6
Continuous
 62
     7
370
    25
100
AcDbCircle
 10
-7.3015948226
 20
-53.9988307285
 30
0.0
 40
5.615913011059582
100
AcDbArc
 50
126.8384565407
 51
166.3275298041
  0
ARC
  5
A1
330
1F
100
AcDbEntity
  8
0
  6
Continuous
 62
     7
370
    25
100
AcDbCircle
 10
-15.738066406
 20
-52.3229635019
 30
0.0
 40
3.000000000000008
100
AcDbArc
 50
281.506024419
 51
353.3304912056
  0
LINE
  5
A2
330
1F
100
AcDbEntity
  8
0
  6
Continuous
 62
     7
370
    25
100
AcDbLine
 10
-15.1396535007
 20
-55.2626747113
 30
0.0
 11
-35.2638213966
 21
-59.3591865518
 31
0.0
  0
ARC
  5
A3
330
1F
100
AcDbEntity
  8
0
  6
Continuous
 62
     7
370
    25
100
AcDbCircle
 10
-35.5630278493
 20
-57.8893309471
 30
0.0
 40
1.500000000000005
100
AcDbArc
 50
127.994796158
 51
281.506024419
  0
LINE
  5
A4
330
1F
100
AcDbEntity
  8
0
  6
Continuous
 62
     7
370
    25
100
AcDbLine
 10
-36.4864127028
 20
-56.7072309461
 30
0.0
 11
-12.7583686127
 21
-38.1723214637
 31
0.0
  0
ARC
  5
A5
330
1F
100
AcDbEntity
  8
0
  6
Continuous
 62
     7
370
    25
100
AcDbCircle
 10
22.4780689805
 20
-20.0
 30
0.0
 40
1.499999999999998
100
AcDbArc
 50
305.4338660396
 51
90.0
  0
LINE
  5
A6
330
1F
100
AcDbEntity
  8
0
  6
Continuous
 62
     7
370
    25
100
AcDbLine
 10
23.3477132883
 20
-21.2221778831
 30
0.0
 11
15.5846133587
 21
-26.7460347278
 31
0.0
  0
LINE
  5
A7
330
1F
100
AcDbEntity
  8
0
  6
Continuous
 62
     7
370
    25
100
AcDbLine
 10
-1.946364371
 20
-26.7460347278
 30
0.0
 11
15.5846133587
 21
-26.7460347278
 31
0.0
  0
ARC
  5
A8
330
1F
100
AcDbEntity
  8
0
  6
Continuous
 62
     7
370
    25
100
AcDbCircle
 10
-1.946364371
 20
-24.7460347278
 30
0.0
 40
1.999999999999999
100
AcDbArc
 50
229.4768346243
 51
270.0
  0
LINE
  5
A9
330
1F
100
AcDbEntity
  8
0
  6
Continuous
 62
     7
370
    25
100
AcDbLine
 10
-8.2132749291
 20
-22.0202866475
 30
0.0
 11
-3.2458752442
 21
-26.2663213753
 31
0.0
  0
ARC
  5
AA
330
1F
100
AcDbEntity
  8
0
  6
Continuous
 62
     7
370
    25
100
AcDbCircle
 10
-6.913764056
 20
-20.5
 30
0.0
 40
2.000000000000008
100
AcDbArc
 50
90.0
 51
229.4768346243
  0
LINE
  5
AB
330
1F
100
AcDbEntity
  8
0
  6
Continuous
 62
     7
370
    25
100
AcDbLine
 10
-6.913764056
 20
-18.5
 30
0.0
 11
22.4780689805
 21
-18.5
 31
0.0
  0
CIRCLE
  5
AC
330
1F
100
AcDbEntity
  8
0
  6
Continuous
 62
     7
370
    25
100
AcDbCircle
 10
63.8015151902
 20
-79.3578643763
 30
0.0
 40
1.600000000000009
  0
CIRCLE
  5
AD
330
1F
100
AcDbEntity
  8
0
  6
Continuous
 62
     7
370
    25
100
AcDbCircle
 10
63.8015151902
 20
79.3578643763
 30
0.0
 40
1.599999999999994
  0
CIRCLE
  5
AE
330
1F
100
AcDbEntity
  8
0
  6
Continuous
 62
     7
370
    25
100
AcDbCircle
 10
79.3578643763
 20
63.8015151902
 30
0.0
 40
1.600000000000009
  0
CIRCLE
  5
AF
330
1F
100
AcDbEntity
  8
0
  6
Continuous
 62
     7
370
    25
100
AcDbCircle
 10
-79.3578643763
 20
63.8015151902
 30
0.0
 40
1.600000000000009
  0
CIRCLE
  5
B0
330
1F
100
AcDbEntity
  8
0
  6
Continuous
 62
     7
370
    25
100
AcDbCircle
 10
79.3578643763
 20
-63.8015151902
 30
0.0
 40
1.600000000000001
  0
CIRCLE
  5
B1
330
1F
100
AcDbEntity
  8
0
  6
Continuous
 62
     7
370
    25
100
AcDbCircle
 10
-79.3578643763
 20
-63.8015151902
 30
0.0
 40
1.600000000000001
  0
CIRCLE
  5
B2
330
1F
100
AcDbEntity
  8
0
  6
Continuous
 62
     7
370
    25
100
AcDbCircle
 10
-63.8015151902
 20
-79.3578643763
 30
0.0
 40
1.600000000000009
  0
CIRCLE
  5
B3
330
1F
100
AcDbEntity
  8
0
  6
Continuous
 62
     7
370
    25
100
AcDbCircle
 10
-63.8015151902
 20
79.3578643763
 30
0.0
 40
1.599999999999994
  0
CIRCLE
  5
B4
330
1F
100
AcDbEntity
  8
0
  6
Continuous
 62
     7
370
    25
100
AcDbCircle
 10
26.6238456605
 20
-36.7460347278
 30
0.0
 40
1.550000000000004
  0
CIRCLE
  5
B5
330
1F
100
AcDbEntity
  8
0
  6
Continuous
 62
     7
370
    25
100
AcDbCircle
 10
-6.3761543395
 20
-53.4560347278
 30
0.0
 40
1.549999999999997
  0
CIRCLE
  5
B6
330
1F
100
AcDbEntity
  8
0
  6
Continuous
 62
     7
370
    25
100
AcDbCircle
 10
-6.3761543395
 20
-36.7460347278
 30
0.0
 40
1.550000000000004
  0
CIRCLE
  5
B7
330
1F
100
AcDbEntity
  8
0
  6
Continuous
 62
     7
370
    25
100
AcDbCircle
 10
-42.1
 20
-6.21
 30
0.0
 40
1.550000000000001
  0
CIRCLE
  5
B8
330
1F
100
AcDbEntity
  8
0
  6
Continuous
 62
     7
370
    25
100
AcDbCircle
 10
26.6238456605
 20
-53.4560347278
 30
0.0
 40
1.550000000000004
  0
CIRCLE
  5
B9
330
1F
100
AcDbEntity
  8
0
  6
Continuous
 62
     7
370
    25
100
AcDbCircle
 10
8.3549998665
 20
57.0021124524
 30
0.0
 40
1.550000000000004
  0
CIRCLE
  5
BA
330
1F
100
AcDbEntity
  8
0
  6
Continuous
 62
     7
370
    25
100
AcDbCircle
 10
-8.355
 20
57.0
 30
0.0
 40
1.550000000000011
  0
CIRCLE
  5
BB
330
1F
100
AcDbEntity
  8
0
  6
Continuous
 62
     7
370
    25
100
AcDbCircle
 10
-42.1
 20
10.5
 30
0.0
 40
1.550000000000001
  0
LINE
  5
BC
330
1F
100
AcDbEntity
  8
0
  6
Continuous
 62
     7
370
    25
100
AcDbLine
 10
-25.6
 20
-10.5
 30
0.0
 11
-25.6
 21
37.5
 31
0.0
  0
ARC
  5
BD
330
1F
100
AcDbEntity
  8
0
  6
Continuous
 62
     7
370
    25
100
AcDbCircle
 10
-22.6
 20
37.5
 30
0.0
 40
3.0
100
AcDbArc
 50
90.0
 51
180.0
  0
LINE
  5
BE
330
1F
100
AcDbEntity
  8
0
  6
Continuous
 62
     7
370
    25
100
AcDbLine
 10
-22.6
 20
40.5
 30
0.0
 11
31.4
 21
40.5
 31
0.0
  0
ARC
  5
BF
330
1F
100
AcDbEntity
  8
0
  6
Continuous
 62
     7
370
    25
100
AcDbCircle
 10
31.4
 20
37.5
 30
0.0
 40
3.0
100
AcDbArc
 50
0.0
 51
90.0
  0
LINE
  5
C0
330
1F
100
AcDbEntity
  8
0
  6
Continuous
 62
     7
370
    25
100
AcDbLine
 10
34.4
 20
37.5
 30
0.0
 11
34.4
 21
-10.5
 31
0.0
  0
ARC
  5
C1
330
1F
100
AcDbEntity
  8
0
  6
Continuous
 62
     7
370
    25
100
AcDbCircle
 10
31.4
 20
-10.5
 30
0.0
 40
3.000000000000002
100
AcDbArc
 50
270.0
 51
0.0
  0
LINE
  5
C2
330
1F
100
AcDbEntity
  8
0
  6
Continuous
 62
     7
370
    25
100
AcDbLine
 10
31.4
 20
-13.5
 30
0.0
 11
-22.6
 21
-13.5
 31
0.0
  0
ARC
  5
C3
330
1F
100
AcDbEntity
  8
0
  6
Continuous
 62
     7
370
    25
100
AcDbCircle
 10
-22.6
 20
-10.5
 30
0.0
 40
2.999999999999998
100
AcDbArc
 50
180.0
 51
270.0
  0
CIRCLE
  5
C4
330
1F
100
AcDbEntity
  8
0
  6
Continuous
 62
     7
370
    25
100
AcDbCircle
 10
62.5
 20
9.0
 30
0.0
 40
1.599999999999996
  0
CIRCLE
  5
C5
330
1F
100
AcDbEntity
  8
0
  6
Continuous
 62
     7
370
    25
100
AcDbCircle
 10
62.5
 20
-9.0
 30
0.0
 40
1.599999999999999
  0
CIRCLE
  5
C6
330
1F
100
AcDbEntity
  8
0
  6
Continuous
 62
     7
370
    25
100
AcDbCircle
 10
-62.5
 20
-9.0
 30
0.0
 40
1.599999999999999
  0
CIRCLE
  5
C7
330
1F
100
AcDbEntity
  8
0
  6
Continuous
 62
     7
370
    25
100
AcDbCircle
 10
-62.5
 20
9.0
 30
0.0
 40
1.599999999999996
  0
LINE
  5
C8
330
1F
100
AcDbEntity
  8
0
  6
Continuous
 62
     7
370
    25
100
AcDbLine
 10
-17.1302845549
 20
85.2036184156
 30
0.0
 11
-30.0
 21
75.0
 31
0.0
  0
ARC
  5
C9
330
1F
100
AcDbEntity
  8
0
  6
Continuous
 62
     7
370
    25
100
AcDbCircle
 10
-30.0
 20
70.0
 30
0.0
 40
5.000000000000014
100
AcDbArc
 50
90.0
 51
156.3164787401
  0
ARC
  5
CA
330
1F
100
AcDbEntity
  8
0
  6
Continuous
 62
     7
370
    25
100
AcDbCircle
 10
-39.1577815897
 20
74.016844079
 30
0.0
 40
4.999999999999995
100
AcDbArc
 50
285.8559940219
 51
336.3164787401
  0
LINE
  5
CB
330
1F
100
AcDbEntity
  8
0
  6
Continuous
 62
     7
370
    25
100
AcDbLine
 10
-43.3840609727
 20
67.6186977721
 30
0.0
 11
-37.7916792232
 21
69.2070868789
 31
0.0
  0
ARC
  5
CC
330
1F
100
AcDbEntity
  8
0
  6
Continuous
 62
     7
370
    25
100
AcDbCircle
 10
-44.7501633393
 20
72.4284549723
 30
0.0
 40
5.000000000000068
100
AcDbArc
 50
225.8036590969
 51
285.8559940219
  0
LINE
  5
CD
330
1F
100
AcDbEntity
  8
0
  6
Continuous
 62
     7
370
    25
100
AcDbLine
 10
-56.5063156843
 20
76.8854157555
 30
0.0
 11
-48.2357599251
 21
68.843679325
 31
0.0
  0
ARC
  5
CE
330
1F
100
AcDbEntity
  8
0
  6
Continuous
 62
     7
370
    25
100
AcDbCircle
 10
-50.2322418298
 20
83.3380119205
 30
0.0
 40
9.0
100
AcDbArc
 50
90.0
 51
225.8036590969
  0
LINE
  5
CF
330
1F
100
AcDbEntity
  8
0
  6
Continuous
 62
     7
370
    25
100
AcDbLine
 10
-19.6153554506
 20
92.3380119205
 30
0.0
 11
-50.2322418298
 21
92.3380119205
 31
0.0
  0
ARC
  5
D0
330
1F
100
AcDbEntity
  8
0
  6
Continuous
 62
     7
370
    25
100
AcDbCircle
 10
-19.6153554506
 20
88.3380119205
 30
0.0
 40
4.000000000000008
100
AcDbArc
 50
308.408769604
 51
90.0
  0
ARC
  5
D1
330
1F
100
AcDbEntity
  8
0
  6
Continuous
 62
     7
370
    25
100
AcDbCircle
 10
30.0
 20
70.0
 30
0.0
 40
5.000000000000017
100
AcDbArc
 50
22.0683938856
 51
52.0794779452
  0
LINE
  5
D2
330
1F
100
AcDbEntity
  8
0
  6
Continuous
 62
     7
370
    25
100
AcDbLine
 10
33.072838964
 20
74.1858159418
 30
0.0
 11
33.072838964
 21
73.9443200557
 31
0.0
  0
LINE
  5
D3
330
1F
100
AcDbEntity
  8
0
  6
Continuous
 62
     7
370
    25
100
AcDbLine
 10
32.7347659683
 20
74.1858159418
 30
0.0
 11
33.072838964
 21
74.1858159418
 31
0.0
  0
ARC
  5
D4
330
1F
100
AcDbEntity
  8
0
  6
Continuous
 62
     7
370
    25
100
AcDbCircle
 10
30.0
 20
70.0
 30
0.0
 40
5.000000000000018
100
AcDbArc
 50
56.8417606299
 51
90.0
  0
LINE
  5
D5
330
1F
100
AcDbEntity
  8
0
  6
Continuous
 62
     7
370
    25
100
AcDbLine
 10
17.1302845549
 20
85.2036184156
 30
0.0
 11
30.0
 21
75.0
 31
0.0
  0
ARC
  5
D6
330
1F
100
AcDbEntity
  8
0
  6
Continuous
 62
     7
370
    25
100
AcDbCircle
 10
19.6153554506
 20
88.3380119205
 30
0.0
 40
4.000000000000012
100
AcDbArc
 50
90.0
 51
231.591230396
  0
LINE
  5
D7
330
1F
100
AcDbEntity
  8
0
  6
Continuous
 62
     7
370
    25
100
AcDbLine
 10
50.4957415588
 20
92.3380119205
 30
0.0
 11
19.6153554506
 21
92.3380119205
 31
0.0
  0
ARC
  5
D8
330
1F
100
AcDbEntity
  8
0
  6
Continuous
 62
     7
370
    25
100
AcDbCircle
 10
50.4957415588
 20
83.3380119205
 30
0.0
 40
9.0
100
AcDbArc
 50
314.6421188483
 51
90.0
  0
LINE
  5
D9
330
1F
100
AcDbEntity
  8
0
  6
Continuous
 62
     7
370
    25
100
AcDbLine
 10
48.0399764668
 20
68.2635751214
 30
0.0
 11
56.8198281015
 21
76.9344246915
 31
0.0
  0
ARC
  5
DA
330
1F
100
AcDbEntity
  8
0
  6
Continuous
 62
     7
370
    25
100
AcDbCircle
 10
44.5265950541
 20
71.821123582
 30
0.0
 40
5.000000000000007
100
AcDbArc
 50
249.790541171
 51
314.6421188483
  0
LINE
  5
DB
330
1F
100
AcDbEntity
  8
0
  6
Continuous
 62
     7
370
    25
100
AcDbLine
 10
37.5400946279
 20
69.0649510149
 30
0.0
 11
42.7993294143
 21
67.1289435546
 31
0.0
  0
ARC
  5
DC
330
1F
100
AcDbEntity
  8
0
  6
Continuous
 62
     7
370
    25
100
AcDbCircle
 10
39.2673602677
 20
73.7571310423
 30
0.0
 40
4.999999999999996
100
AcDbArc
 50
202.0683938856
 51
249.790541171
  0
ARC
  5
DD
330
1F
100
AcDbEntity
  8
0
  6
Continuous
 62
     7
370
    25
100
AcDbCircle
 10
-0.0024655461
 20
-90.1654877341
 30
0.0
 40
1.643863978927919
100
AcDbArc
 50
243.6856729683
 51
296.6495664795
  0
LINE
  5
DE
330
1F
100
AcDbEntity
  8
0
  6
Continuous
 62
     7
370
    25
100
AcDbLine
 10
-8.9080504819
 20
-82.1038819229
 30
0.0
 11
-0.7311827989
 21
-91.6390073121
 31
0.0
  0
ARC
  5
DF
330
1F
100
AcDbEntity
  8
0
  6
Continuous
 62
     7
370
    25
100
AcDbCircle
 10
-5.8716383012
 20
-79.5
 30
0.0
 40
4.0
100
AcDbArc
 50
90.0
 51
220.6148119832
  0
LINE
  5
E0
330
1F
100
AcDbEntity
  8
0
  6
Continuous
 62
     7
370
    25
100
AcDbLine
 10
-5.8716383012
 20
-75.5
 30
0.0
 11
5.8716383012
 21
-75.5
 31
0.0
  0
ARC
  5
E1
330
1F
100
AcDbEntity
  8
0
  6
Continuous
 62
     7
370
    25
100
AcDbCircle
 10
5.8716383012
 20
-79.5
 30
0.0
 40
4.0
100
AcDbArc
 50
319.3851880168
 51
90.0
  0
LINE
  5
E2
330
1F
100
AcDbEntity
  8
0
  6
Continuous
 62
     7
370
    25
100
AcDbLine
 10
8.9080504819
 20
-82.1038819229
 30
0.0
 11
0.7348607942
 21
-91.6347183658
 31
0.0
  0
ARC
  5
E3
330
1F
100
AcDbEntity
  8
0
  6
Continuous
 62
     7
370
    25
100
AcDbCircle
 10
-0.0024655461
 20
90.1654877341
 30
0.0
 40
1.643863978927919
100
AcDbArc
 50
63.3504335205
 51
116.3143270317
  0
LINE
  5
E4
330
1F
100
AcDbEntity
  8
0
  6
Continuous
 62
     7
370
    25
100
AcDbLine
 10
9.3368265782
 20
81.6038819229
 30
0.0
 11
0.7348607942
 21
91.6347183658
 31
0.0
  0
ARC
  5
E5
330
1F
100
AcDbEntity
  8
0
  6
Continuous
 62
     7
370
    25
100
AcDbCircle
 10
6.3004143974
 20
79.0
 30
0.0
 40
4.0
100
AcDbArc
 50
270.0
 51
40.6148119832
  0
LINE
  5
E6
330
1F
100
AcDbEntity
  8
0
  6
Continuous
 62
     7
370
    25
100
AcDbLine
 10
-6.3004143974
 20
75.0
 30
0.0
 11
6.3004143974
 21
75.0
 31
0.0
  0
ARC
  5
E7
330
1F
100
AcDbEntity
  8
0
  6
Continuous
 62
     7
370
    25
100
AcDbCircle
 10
-6.3004143974
 20
79.0
 30
0.0
 40
4.0
100
AcDbArc
 50
139.3851880168
 51
270.0
  0
LINE
  5
E8
330
1F
100
AcDbEntity
  8
0
  6
Continuous
 62
     7
370
    25
100
AcDbLine
 10
-9.3368265782
 20
81.6038819229
 30
0.0
 11
-0.7311827989
 21
91.6390073121
 31
0.0
  0
LINE
  5
E9
330
1F
100
AcDbEntity
  8
0
  6
Continuous
 62
     7
370
    25
100
AcDbLine
 10
-30.0
 20
-75.5
 30
0.0
 11
-29.3693553149
 21
-75.5
 31
0.0
  0
LINE
  5
EA
330
1F
100
AcDbEntity
  8
0
  6
Continuous
 62
     7
370
    25
100
AcDbLine
 10
-17.1302845549
 20
-85.2036184156
 30
0.0
 11
-29.3693553149
 21
-75.5
 31
0.0
  0
ARC
  5
EB
330
1F
100
AcDbEntity
  8
0
  6
Continuous
 62
     7
370
    25
100
AcDbCircle
 10
-19.6153554506
 20
-88.3380119205
 30
0.0
 40
4.000000000000008
100
AcDbArc
 50
270.0
 51
51.591230396
  0
LINE
  5
EC
330
1F
100
AcDbEntity
  8
0
  6
Continuous
 62
     7
370
    25
100
AcDbLine
 10
-50.2322418298
 20
-92.3380119205
 30
0.0
 11
-19.6153554506
 21
-92.3380119205
 31
0.0
  0
ARC
  5
ED
330
1F
100
AcDbEntity
  8
0
  6
Continuous
 62
     7
370
    25
100
AcDbCircle
 10
-50.2322418298
 20
-83.3380119205
 30
0.0
 40
9.0
100
AcDbArc
 50
134.1963409031
 51
270.0
  0
LINE
  5
EE
330
1F
100
AcDbEntity
  8
0
  6
Continuous
 62
     7
370
    25
100
AcDbLine
 10
-56.5063156843
 20
-76.8854157555
 30
0.0
 11
-48.2357599251
 21
-68.843679325
 31
0.0
  0
ARC
  5
EF
330
1F
100
AcDbEntity
  8
0
  6
Continuous
 62
     7
370
    25
100
AcDbCircle
 10
-44.7501633393
 20
-72.4284549723
 30
0.0
 40
5.000000000000019
100
AcDbArc
 50
73.1887461892
 51
134.1963409031
  0
LINE
  5
F0
330
1F
100
AcDbEntity
  8
0
  6
Continuous
 62
     7
370
    25
100
AcDbLine
 10
-43.3040642179
 20
-67.6421414293
 30
0.0
 11
-38.2846291596
 21
-69.1586740515
 31
0.0
  0
ARC
  5
F1
330
1F
100
AcDbEntity
  8
0
  6
Continuous
 62
     7
370
    25
100
AcDbCircle
 10
-39.7307282811
 20
-73.9449875944
 30
0.0
 40
5.000000000000012
100
AcDbArc
 50
22.0683938856
 51
73.1887461892
  0
ARC
  5
F2
330
1F
100
AcDbEntity
  8
0
  6
Continuous
 62
     7
370
    25
100
AcDbCircle
 10
-30.0
 20
-70.0
 30
0.0
 40
5.500000000000014
100
AcDbArc
 50
202.0683938856
 51
270.0
  0
LINE
  5
F3
330
1F
100
AcDbEntity
  8
0
  6
Continuous
 62
     7
370
    25
100
AcDbLine
 10
19.6153554506
 20
-92.3380119205
 30
0.0
 11
50.2322418298
 21
-92.3380119205
 31
0.0
  0
ARC
  5
F4
330
1F
100
AcDbEntity
  8
0
  6
Continuous
 62
     7
370
    25
100
AcDbCircle
 10
19.6153554506
 20
-88.3380119205
 30
0.0
 40
4.000000000000008
100
AcDbArc
 50
128.408769604
 51
270.0
  0
LINE
  5
F5
330
1F
100
AcDbEntity
  8
0
  6
Continuous
 62
     7
370
    25
100
AcDbLine
 10
17.1302845549
 20
-85.2036184156
 30
0.0
 11
29.3693553149
 21
-75.5
 31
0.0
  0
LINE
  5
F6
330
1F
100
AcDbEntity
  8
0
  6
Continuous
 62
     7
370
    25
100
AcDbLine
 10
29.3693553149
 20
-75.5
 30
0.0
 11
30.0
 21
-75.5
 31
0.0
  0
ARC
  5
F7
330
1F
100
AcDbEntity
  8
0
  6
Continuous
 62
     7
370
    25
100
AcDbCircle
 10
30.0
 20
-70.0
 30
0.0
 40
5.500000000000014
100
AcDbArc
 50
270.0
 51
337.9316061144
  0
ARC
  5
F8
330
1F
100
AcDbEntity
  8
0
  6
Continuous
 62
     7
370
    25
100
AcDbCircle
 10
39.7307282811
 20
-73.9449875944
 30
0.0
 40
5.000000000000012
100
AcDbArc
 50
106.8112538108
 51
157.9316061144
  0
LINE
  5
F9
330
1F
100
AcDbEntity
  8
0
  6
Continuous
 62
     7
370
    25
100
AcDbLine
 10
38.2846291596
 20
-69.1586740515
 30
0.0
 11
43.3040642179
 21
-67.6421414293
 31
0.0
  0
ARC
  5
FA
330
1F
100
AcDbEntity
  8
0
  6
Continuous
 62
     7
370
    25
100
AcDbCircle
 10
44.7501633393
 20
-72.4284549723
 30
0.0
 40
5.000000000000019
100
AcDbArc
 50
45.8036590969
 51
106.8112538108
  0
LINE
  5
FB
330
1F
100
AcDbEntity
  8
0
  6
Continuous
 62
     7
370
    25
100
AcDbLine
 10
48.2357599251
 20
-68.843679325
 30
0.0
 11
56.5063156843
 21
-76.8854157555
 31
0.0
  0
ARC
  5
FC
330
1F
100
AcDbEntity
  8
0
  6
Continuous
 62
     7
370
    25
100
AcDbCircle
 10
50.2322418298
 20
-83.3380119205
 30
0.0
 40
9.0
100
AcDbArc
 50
270.0
 51
45.8036590969
  0
LINE
  5
FD
330
1F
100
AcDbEntity
  8
0
  6
Continuous
 62
     7
370
    25
100
AcDbLine
 10
-79.6531829136
 20
-97.5
 30
0.0
 11
79.6531829136
 21
-97.5
 31
0.0
  0
ARC
  5
FE
330
1F
100
AcDbEntity
  8
0
  6
Continuous
 62
     7
370
    25
100
AcDbCircle
 10
77.9436508139
 20
-93.5
 30
0.0
 40
4.350000000000021
100
AcDbArc
 50
293.1410410267
 51
345.2615230754
  0
ARC
  5
FF
330
1F
100
AcDbEntity
  8
0
  6
Continuous
 62
     7
370
    25
100
AcDbCircle
 10
86.9860089213
 20
-95.8787097045
 30
0.0
 40
5.00000000000002
100
AcDbArc
 50
135.0
 51
165.2615230754
  0
LINE
  5
100
330
1F
100
AcDbEntity
  8
0
  6
Continuous
 62
     7
370
    25
100
AcDbLine
 10
83.4504750153
 20
-92.3431757986
 30
0.0
 11
92.3431757986
 21
-83.4504750153
 31
0.0
  0
ARC
  5
101
330
1F
100
AcDbEntity
  8
0
  6
Continuous
 62
     7
370
    25
100
AcDbCircle
 10
95.8787097045
 20
-86.9860089213
 30
0.0
 40
5.00000000000002
100
AcDbArc
 50
104.7384769246
 51
135.0
  0
ARC
  5
102
330
1F
100
AcDbEntity
  8
0
  6
Continuous
 62
     7
370
    25
100
AcDbCircle
 10
93.5
 20
-77.9436508139
 30
0.0
 40
4.350000000000023
100
AcDbArc
 50
284.7384769246
 51
336.8589589733
  0
LINE
  5
103
330
1F
100
AcDbEntity
  8
0
  6
Continuous
 62
     7
370
    25
100
AcDbLine
 10
97.5
 20
-79.6531829136
 30
0.0
 11
97.5
 21
79.6531829136
 31
0.0
  0
ARC
  5
104
330
1F
100
AcDbEntity
  8
0
  6
Continuous
 62
     7
370
    25
100
AcDbCircle
 10
93.5
 20
77.9436508139
 30
0.0
 40
4.350000000000023
100
AcDbArc
 50
23.1410410267
 51
75.2615230754
  0
ARC
  5
105
330
1F
100
AcDbEntity
  8
0
  6
Continuous
 62
     7
370
    25
100
AcDbCircle
 10
95.8787097045
 20
86.9860089213
 30
0.0
 40
5.00000000000002
100
AcDbArc
 50
225.0
 51
255.2615230754
  0
LINE
  5
106
330
1F
100
AcDbEntity
  8
0
  6
Continuous
 62
     7
370
    25
100
AcDbLine
 10
83.4504750153
 20
92.3431757986
 30
0.0
 11
92.3431757986
 21
83.4504750153
 31
0.0
  0
ARC
  5
107
330
1F
100
AcDbEntity
  8
0
  6
Continuous
 62
     7
370
    25
100
AcDbCircle
 10
86.9860089213
 20
95.8787097045
 30
0.0
 40
5.00000000000002
100
AcDbArc
 50
194.7384769246
 51
225.0
  0
ARC
  5
108
330
1F
100
AcDbEntity
  8
0
  6
Continuous
 62
     7
370
    25
100
AcDbCircle
 10
77.9436508139
 20
93.5
 30
0.0
 40
4.350000000000021
100
AcDbArc
 50
14.7384769246
 51
66.8589589733
  0
LINE
  5
109
330
1F
100
AcDbEntity
  8
0
  6
Continuous
 62
     7
370
    25
100
AcDbLine
 10
79.6531829136
 20
97.5
 30
0.0
 11
-79.6531829136
 21
97.5
 31
0.0
  0
ARC
  5
10A
330
1F
100
AcDbEntity
  8
0
  6
Continuous
 62
     7
370
    25
100
AcDbCircle
 10
-77.9436508139
 20
93.5
 30
0.0
 40
4.350000000000021
100
AcDbArc
 50
113.1410410267
 51
165.2615230754
  0
ARC
  5
10B
330
1F
100
AcDbEntity
  8
0
  6
Continuous
 62
     7
370
    25
100
AcDbCircle
 10
-86.9860089213
 20
95.8787097045
 30
0.0
 40
5.00000000000002
100
AcDbArc
 50
315.0
 51
345.2615230754
  0
LINE
  5
10C
330
1F
100
AcDbEntity
  8
0
  6
Continuous
 62
     7
370
    25
100
AcDbLine
 10
-92.3431757986
 20
83.4504750153
 30
0.0
 11
-83.4504750153
 21
92.3431757986
 31
0.0
  0
ARC
  5
10D
330
1F
100
AcDbEntity
  8
0
  6
Continuous
 62
     7
370
    25
100
AcDbCircle
 10
-95.8787097045
 20
86.9860089213
 30
0.0
 40
5.00000000000002
100
AcDbArc
 50
284.7384769246
 51
315.0
  0
ARC
  5
10E
330
1F
100
AcDbEntity
  8
0
  6
Continuous
 62
     7
370
    25
100
AcDbCircle
 10
-93.5
 20
77.9436508139
 30
0.0
 40
4.350000000000021
100
AcDbArc
 50
104.7384769246
 51
156.8589589733
  0
LINE
  5
10F
330
1F
100
AcDbEntity
  8
0
  6
Continuous
 62
     7
370
    25
100
AcDbLine
 10
-97.5
 20
79.6531829136
 30
0.0
 11
-97.5
 21
-79.6531829136
 31
0.0
  0
ARC
  5
110
330
1F
100
AcDbEntity
  8
0
  6
Continuous
 62
     7
370
    25
100
AcDbCircle
 10
-93.5
 20
-77.9436508139
 30
0.0
 40
4.350000000000021
100
AcDbArc
 50
203.1410410267
 51
255.2615230754
  0
ARC
  5
111
330
1F
100
AcDbEntity
  8
0
  6
Continuous
 62
     7
370
    25
100
AcDbCircle
 10
-95.8787097045
 20
-86.9860089213
 30
0.0
 40
5.00000000000002
100
AcDbArc
 50
45.0
 51
75.2615230754
  0
LINE
  5
112
330
1F
100
AcDbEntity
  8
0
  6
Continuous
 62
     7
370
    25
100
AcDbLine
 10
-92.3431757986
 20
-83.4504750153
 30
0.0
 11
-83.4504750153
 21
-92.3431757986
 31
0.0
  0
ARC
  5
113
330
1F
100
AcDbEntity
  8
0
  6
Continuous
 62
     7
370
    25
100
AcDbCircle
 10
-86.9860089213
 20
-95.8787097045
 30
0.0
 40
5.00000000000002
100
AcDbArc
 50
14.7384769246
 51
45.0
  0
ARC
  5
114
330
1F
100
AcDbEntity
  8
0
  6
Continuous
 62
     7
370
    25
100
AcDbCircle
 10
-77.9436508139
 20
-93.5
 30
0.0
 40
4.350000000000021
100
AcDbArc
 50
194.7384769246
 51
246.8589589733
  0
LINE
  5
115
330
1F
100
AcDbEntity
  8
0
  6
Continuous
 62
     7
370
    25
100
AcDbLine
 10
58.318731361
 20
-26.3483489923
 30
0.0
 11
51.0349261842
 21
-39.0950080518
 31
0.0
  0
ARC
  5
116
330
1F
100
AcDbEntity
  8
0
  6
Continuous
 62
     7
370
    25
100
AcDbCircle
 10
59.1869745032
 20
-26.8444879307
 30
0.0
 40
1.000000000000004
100
AcDbArc
 50
358.4911724143
 51
150.2551187031
  0
LINE
  5
117
330
1F
100
AcDbEntity
  8
0
  6
Continuous
 62
     7
370
    25
100
AcDbLine
 10
59.7885410485
 20
-41.984154106
 30
0.0
 11
60.1866277832
 21
-26.8708188963
 31
0.0
  0
ARC
  5
118
330
1F
100
AcDbEntity
  8
0
  6
Continuous
 62
     7
370
    25
100
AcDbCircle
 10
58.7888877685
 20
-41.9578231404
 30
0.0
 40
1.000000000000002
100
AcDbArc
 50
251.0317470485
 51
358.4911724143
  0
LINE
  5
119
330
1F
100
AcDbEntity
  8
0
  6
Continuous
 62
     7
370
    25
100
AcDbLine
 10
51.5781251247
 20
-40.5368458148
 30
0.0
 11
58.4638435669
 21
-42.903521965
 31
0.0
  0
ARC
  5
11A
330
1F
100
AcDbEntity
  8
0
  6
Continuous
 62
     7
370
    25
100
AcDbCircle
 10
51.9031693263
 20
-39.5911469902
 30
0.0
 40
1.000000000000004
100
AcDbArc
 50
150.2551187031
 51
251.0317470485
  0
LINE
  5
11B
330
1F
100
AcDbEntity
  8
0
  6
Continuous
 62
     7
370
    25
100
AcDbLine
 10
-58.4638435669
 20
-42.903521965
 30
0.0
 11
-51.5781251247
 21
-40.5368458148
 31
0.0
  0
ARC
  5
11C
330
1F
100
AcDbEntity
  8
0
  6
Continuous
 62
     7
370
    25
100
AcDbCircle
 10
-58.7888877685
 20
-41.9578231404
 30
0.0
 40
1.000000000000002
100
AcDbArc
 50
181.5088275857
 51
288.9682529515
  0
LINE
  5
11D
330
1F
100
AcDbEntity
  8
0
  6
Continuous
 62
     7
370
    25
100
AcDbLine
 10
-60.1866277832
 20
-26.8708188963
 30
0.0
 11
-59.7885410485
 21
-41.984154106
 31
0.0
  0
ARC
  5
11E
330
1F
100
AcDbEntity
  8
0
  6
Continuous
 62
     7
370
    25
100
AcDbCircle
 10
-59.1869745032
 20
-26.8444879307
 30
0.0
 40
1.000000000000004
100
AcDbArc
 50
29.7448812969
 51
181.5088275857
  0
LINE
  5
11F
330
1F
100
AcDbEntity
  8
0
  6
Continuous
 62
     7
370
    25
100
AcDbLine
 10
-51.0349261842
 20
-39.0950080518
 30
0.0
 11
-58.318731361
 21
-26.3483489923
 31
0.0
  0
ARC
  5
120
330
1F
100
AcDbEntity
  8
0
  6
Continuous
 62
     7
370
    25
100
AcDbCircle
 10
-51.9031693263
 20
-39.5911469902
 30
0.0
 40
1.000000000000008
100
AcDbArc
 50
288.9682529515
 51
29.7448812969
  0
LINE
  5
121
330
1F
100
AcDbEntity
  8
0
  6
Continuous
 62
     7
370
    25
100
AcDbLine
 10
58.4638435669
 20
42.903521965
 30
0.0
 11
51.5781251247
 21
40.5368458148
 31
0.0
  0
ARC
  5
122
330
1F
100
AcDbEntity
  8
0
  6
Continuous
 62
     7
370
    25
100
AcDbCircle
 10
58.7888877685
 20
41.9578231404
 30
0.0
 40
1.000000000000002
100
AcDbArc
 50
1.5088275857
 51
108.9682529515
  0
LINE
  5
123
330
1F
100
AcDbEntity
  8
0
  6
Continuous
 62
     7
370
    25
100
AcDbLine
 10
60.1866277832
 20
26.8708188963
 30
0.0
 11
59.7885410485
 21
41.984154106
 31
0.0
  0
ARC
  5
124
330
1F
100
AcDbEntity
  8
0
  6
Continuous
 62
     7
370
    25
100
AcDbCircle
 10
59.1869745032
 20
26.8444879307
 30
0.0
 40
1.000000000000004
100
AcDbArc
 50
209.7448812969
 51
1.5088275857
  0
LINE
  5
125
330
1F
100
AcDbEntity
  8
0
  6
Continuous
 62
     7
370
    25
100
AcDbLine
 10
51.0349261842
 20
39.0950080518
 30
0.0
 11
58.318731361
 21
26.3483489923
 31
0.0
  0
ARC
  5
126
330
1F
100
AcDbEntity
  8
0
  6
Continuous
 62
     7
370
    25
100
AcDbCircle
 10
51.9031693263
 20
39.5911469902
 30
0.0
 40
0.9999999999999981
100
AcDbArc
 50
108.9682529515
 51
209.7448812969
  0
LINE
  5
127
330
1F
100
AcDbEntity
  8
0
  6
Continuous
 62
     7
370
    25
100
AcDbLine
 10
75.4081883548
 20
65.5086934182
 30
0.0
 11
85.0147186258
 21
75.1152236891
 31
0.0
  0
ARC
  5
128
330
1F
100
AcDbEntity
  8
0
  6
Continuous
 62
     7
370
    25
100
AcDbCircle
 10
73.9939747924
 20
66.9229069806
 30
0.0
 40
2.000000000000022
100
AcDbArc
 50
155.7255588656
 51
315.0
  0
LINE
  5
129
330
1F
100
AcDbEntity
  8
0
  6
Continuous
 62
     7
370
    25
100
AcDbLine
 10
77.8313196339
 20
80.2967066659
 30
0.0
 11
72.1708012787
 21
67.7451224868
 31
0.0
  0
ARC
  5
12A
330
1F
100
AcDbEntity
  8
0
  6
Continuous
 62
     7
370
    25
100
AcDbCircle
 10
81.4776666615
 20
78.6522756534
 30
0.0
 40
4.000000000000017
100
AcDbArc
 50
45.0
 51
155.7255588656
  0
LINE
  5
12B
330
1F
100
AcDbEntity
  8
0
  6
Continuous
 62
     7
370
    25
100
AcDbLine
 10
85.0147186258
 20
80.7720779386
 30
0.0
 11
84.3060937862
 21
81.4807027782
 31
0.0
  0
ARC
  5
12C
330
1F
100
AcDbEntity
  8
0
  6
Continuous
 62
     7
370
    25
100
AcDbCircle
 10
82.186291501
 20
77.9436508139
 30
0.0
 40
4.000000000000012
100
AcDbArc
 50
315.0
 51
45.0
  0
LINE
  5
12D
330
1F
100
AcDbEntity
  8
0
  6
Continuous
 62
     7
370
    25
100
AcDbLine
 10
-55.3177518743
 20
58.1431428823
 30
0.0
 11
-54.6091270347
 21
58.8517677219
 31
0.0
  0
ARC
  5
12E
330
1F
100
AcDbEntity
  8
0
  6
Continuous
 62
     7
370
    25
100
AcDbCircle
 10
-58.146178999
 20
60.9715700071
 30
0.0
 40
4.000000000000002
100
AcDbArc
 50
204.2744411344
 51
315.0
  0
LINE
  5
12F
330
1F
100
AcDbEntity
  8
0
  6
Continuous
 62
     7
370
    25
100
AcDbLine
 10
-67.4530443818
 20
71.8787231737
 30
0.0
 11
-61.7925260266
 21
59.3271389946
 31
0.0
  0
ARC
  5
130
330
1F
100
AcDbEntity
  8
0
  6
Continuous
 62
     7
370
    25
100
AcDbCircle
 10
-65.6298708681
 20
72.7009386799
 30
0.0
 40
1.999999999999998
100
AcDbArc
 50
45.0
 51
204.2744411344
  0
LINE
  5
131
330
1F
100
AcDbEntity
  8
0
  6
Continuous
 62
     7
370
    25
100
AcDbLine
 10
-54.6091270347
 20
64.5086219714
 30
0.0
 11
-64.2156573057
 21
74.1151522423
 31
0.0
  0
ARC
  5
132
330
1F
100
AcDbEntity
  8
0
  6
Continuous
 62
     7
370
    25
100
AcDbCircle
 10
-57.4375541595
 20
61.6801948466
 30
0.0
 40
4.000000000000002
100
AcDbArc
 50
315.0
 51
45.0
  0
LINE
  5
133
330
1F
100
AcDbEntity
  8
0
  6
Continuous
 62
     7
370
    25
100
AcDbLine
 10
-58.318731361
 20
26.3483489923
 30
0.0
 11
-51.0349261842
 21
39.0950080518
 31
0.0
  0
ARC
  5
134
330
1F
100
AcDbEntity
  8
0
  6
Continuous
 62
     7
370
    25
100
AcDbCircle
 10
-59.1869745032
 20
26.8444879307
 30
0.0
 40
1.000000000000004
100
AcDbArc
 50
178.4911724143
 51
330.2551187031
  0
LINE
  5
135
330
1F
100
AcDbEntity
  8
0
  6
Continuous
 62
     7
370
    25
100
AcDbLine
 10
-59.7885410485
 20
41.984154106
 30
0.0
 11
-60.1866277832
 21
26.8708188963
 31
0.0
  0
ARC
  5
136
330
1F
100
AcDbEntity
  8
0
  6
Continuous
 62
     7
370
    25
100
AcDbCircle
 10
-58.7888877685
 20
41.9578231404
 30
0.0
 40
1.000000000000002
100
AcDbArc
 50
71.0317470485
 51
178.4911724143
  0
LINE
  5
137
330
1F
100
AcDbEntity
  8
0
  6
Continuous
 62
     7
370
    25
100
AcDbLine
 10
-51.5781251247
 20
40.5368458148
 30
0.0
 11
-58.4638435669
 21
42.903521965
 31
0.0
  0
ARC
  5
138
330
1F
100
AcDbEntity
  8
0
  6
Continuous
 62
     7
370
    25
100
AcDbCircle
 10
-51.9031693263
 20
39.5911469902
 30
0.0
 40
1.000000000000008
100
AcDbArc
 50
330.2551187031
 51
71.0317470485
  0
LINE
  5
139
330
1F
100
AcDbEntity
  8
0
  6
Continuous
 62
     7
370
    25
100
AcDbLine
 10
-64.2156573057
 20
-74.1151522423
 30
0.0
 11
-54.6091270347
 21
-64.5086219714
 31
0.0
  0
ARC
  5
13A
330
1F
100
AcDbEntity
  8
0
  6
Continuous
 62
     7
370
    25
100
AcDbCircle
 10
-65.6298708681
 20
-72.7009386799
 30
0.0
 40
1.999999999999998
100
AcDbArc
 50
155.7255588656
 51
315.0
  0
LINE
  5
13B
330
1F
100
AcDbEntity
  8
0
  6
Continuous
 62
     7
370
    25
100
AcDbLine
 10
-61.7925260266
 20
-59.3271389946
 30
0.0
 11
-67.4530443818
 21
-71.8787231737
 31
0.0
  0
ARC
  5
13C
330
1F
100
AcDbEntity
  8
0
  6
Continuous
 62
     7
370
    25
100
AcDbCircle
 10
-58.146178999
 20
-60.9715700071
 30
0.0
 40
4.000000000000002
100
AcDbArc
 50
45.0
 51
155.7255588656
  0
LINE
  5
13D
330
1F
100
AcDbEntity
  8
0
  6
Continuous
 62
     7
370
    25
100
AcDbLine
 10
-54.6091270347
 20
-58.8517677219
 30
0.0
 11
-55.3177518743
 21
-58.1431428823
 31
0.0
  0
ARC
  5
13E
330
1F
100
AcDbEntity
  8
0
  6
Continuous
 62
     7
370
    25
100
AcDbCircle
 10
-57.4375541595
 20
-61.6801948466
 30
0.0
 40
3.999999999999997
100
AcDbArc
 50
315.0
 51
45.0
  0
LINE
  5
13F
330
1F
100
AcDbEntity
  8
0
  6
Continuous
 62
     7
370
    25
100
AcDbLine
 10
-75.4081883548
 20
-65.5086934182
 30
0.0
 11
-85.0147186258
 21
-75.1152236891
 31
0.0
  0
ARC
  5
140
330
1F
100
AcDbEntity
  8
0
  6
Continuous
 62
     7
370
    25
100
AcDbCircle
 10
-73.9939747924
 20
-66.9229069806
 30
0.0
 40
1.999999999999998
100
AcDbArc
 50
335.7255588656
 51
135.0
  0
LINE
  5
141
330
1F
100
AcDbEntity
  8
0
  6
Continuous
 62
     7
370
    25
100
AcDbLine
 10
-77.8313196339
 20
-80.2967066659
 30
0.0
 11
-72.1708012787
 21
-67.7451224868
 31
0.0
  0
ARC
  5
142
330
1F
100
AcDbEntity
  8
0
  6
Continuous
 62
     7
370
    25
100
AcDbCircle
 10
-81.4776666615
 20
-78.6522756534
 30
0.0
 40
4.000000000000017
100
AcDbArc
 50
225.0
 51
335.7255588656
  0
LINE
  5
143
330
1F
100
AcDbEntity
  8
0
  6
Continuous
 62
     7
370
    25
100
AcDbLine
 10
-85.0147186258
 20
-80.7720779386
 30
0.0
 11
-84.3060937862
 21
-81.4807027782
 31
0.0
  0
ARC
  5
144
330
1F
100
AcDbEntity
  8
0
  6
Continuous
 62
     7
370
    25
100
AcDbCircle
 10
-82.186291501
 20
-77.9436508139
 30
0.0
 40
4.000000000000002
100
AcDbArc
 50
135.0
 51
225.0
  0
LINE
  5
145
330
1F
100
AcDbEntity
  8
0
  6
Continuous
 62
     7
370
    25
100
AcDbLine
 10
84.3060937862
 20
-81.4807027782
 30
0.0
 11
85.0147186258
 21
-80.7720779386
 31
0.0
  0
ARC
  5
146
330
1F
100
AcDbEntity
  8
0
  6
Continuous
 62
     7
370
    25
100
AcDbCircle
 10
81.4776666615
 20
-78.6522756534
 30
0.0
 40
4.000000000000017
100
AcDbArc
 50
204.2744411344
 51
315.0
  0
LINE
  5
147
330
1F
100
AcDbEntity
  8
0
  6
Continuous
 62
     7
370
    25
100
AcDbLine
 10
72.1708012787
 20
-67.7451224868
 30
0.0
 11
77.8313196339
 21
-80.2967066659
 31
0.0
  0
ARC
  5
148
330
1F
100
AcDbEntity
  8
0
  6
Continuous
 62
     7
370
    25
100
AcDbCircle
 10
73.9939747924
 20
-66.9229069806
 30
0.0
 40
2.000000000000022
100
AcDbArc
 50
45.0
 51
204.2744411344
  0
LINE
  5
149
330
1F
100
AcDbEntity
  8
0
  6
Continuous
 62
     7
370
    25
100
AcDbLine
 10
85.0147186258
 20
-75.1152236891
 30
0.0
 11
75.4081883548
 21
-65.5086934182
 31
0.0
  0
ARC
  5
14A
330
1F
100
AcDbEntity
  8
0
  6
Continuous
 62
     7
370
    25
100
AcDbCircle
 10
82.186291501
 20
-77.9436508139
 30
0.0
 40
4.000000000000012
100
AcDbArc
 50
315.0
 51
45.0
  0
LINE
  5
14B
330
1F
100
AcDbEntity
  8
0
  6
Continuous
 62
     7
370
    25
100
AcDbLine
 10
55.3177518743
 20
-58.1431428823
 30
0.0
 11
54.6091270347
 21
-58.8517677219
 31
0.0
  0
ARC
  5
14C
330
1F
100
AcDbEntity
  8
0
  6
Continuous
 62
     7
370
    25
100
AcDbCircle
 10
58.146178999
 20
-60.9715700071
 30
0.0
 40
3.999999999999997
100
AcDbArc
 50
24.2744411344
 51
135.0
  0
LINE
  5
14D
330
1F
100
AcDbEntity
  8
0
  6
Continuous
 62
     7
370
    25
100
AcDbLine
 10
67.4530443818
 20
-71.8787231737
 30
0.0
 11
61.7925260266
 21
-59.3271389946
 31
0.0
  0
ARC
  5
14E
330
1F
100
AcDbEntity
  8
0
  6
Continuous
 62
     7
370
    25
100
AcDbCircle
 10
65.6298708681
 20
-72.7009386799
 30
0.0
 40
1.999999999999998
100
AcDbArc
 50
225.0
 51
24.2744411344
  0
LINE
  5
14F
330
1F
100
AcDbEntity
  8
0
  6
Continuous
 62
     7
370
    25
100
AcDbLine
 10
54.6091270347
 20
-64.5086219714
 30
0.0
 11
64.2156573057
 21
-74.1151522423
 31
0.0
  0
ARC
  5
150
330
1F
100
AcDbEntity
  8
0
  6
Continuous
 62
     7
370
    25
100
AcDbCircle
 10
57.4375541595
 20
-61.6801948466
 30
0.0
 40
4.000000000000007
100
AcDbArc
 50
135.0
 51
225.0
  0
LINE
  5
151
330
1F
100
AcDbEntity
  8
0
  6
Continuous
 62
     7
370
    25
100
AcDbLine
 10
64.2156573057
 20
74.1151522423
 30
0.0
 11
54.6091270347
 21
64.5086219714
 31
0.0
  0
ARC
  5
152
330
1F
100
AcDbEntity
  8
0
  6
Continuous
 62
     7
370
    25
100
AcDbCircle
 10
65.6298708681
 20
72.7009386799
 30
0.0
 40
1.999999999999998
100
AcDbArc
 50
335.7255588656
 51
135.0
  0
LINE
  5
153
330
1F
100
AcDbEntity
  8
0
  6
Continuous
 62
     7
370
    25
100
AcDbLine
 10
61.7925260266
 20
59.3271389946
 30
0.0
 11
67.4530443818
 21
71.8787231737
 31
0.0
  0
ARC
  5
154
330
1F
100
AcDbEntity
  8
0
  6
Continuous
 62
     7
370
    25
100
AcDbCircle
 10
58.146178999
 20
60.9715700071
 30
0.0
 40
3.999999999999997
100
AcDbArc
 50
225.0
 51
335.7255588656
  0
LINE
  5
155
330
1F
100
AcDbEntity
  8
0
  6
Continuous
 62
     7
370
    25
100
AcDbLine
 10
54.6091270347
 20
58.8517677219
 30
0.0
 11
55.3177518743
 21
58.1431428823
 31
0.0
  0
ARC
  5
156
330
1F
100
AcDbEntity
  8
0
  6
Continuous
 62
     7
370
    25
100
AcDbCircle
 10
57.4375541595
 20
61.6801948466
 30
0.0
 40
4.000000000000002
100
AcDbArc
 50
135.0
 51
225.0
  0
LINE
  5
157
330
1F
100
AcDbEntity
  8
0
  6
Continuous
 62
     7
370
    25
100
AcDbLine
 10
-84.3060937862
 20
81.4807027782
 30
0.0
 11
-85.0147186258
 21
80.7720779386
 31
0.0
  0
ARC
  5
158
330
1F
100
AcDbEntity
  8
0
  6
Continuous
 62
     7
370
    25
100
AcDbCircle
 10
-81.4776666615
 20
78.6522756534
 30
0.0
 40
4.000000000000017
100
AcDbArc
 50
24.2744411344
 51
135.0
  0
LINE
  5
159
330
1F
100
AcDbEntity
  8
0
  6
Continuous
 62
     7
370
    25
100
AcDbLine
 10
-72.1708012787
 20
67.7451224868
 30
0.0
 11
-77.8313196339
 21
80.2967066659
 31
0.0
  0
ARC
  5
15A
330
1F
100
AcDbEntity
  8
0
  6
Continuous
 62
     7
370
    25
100
AcDbCircle
 10
-73.9939747924
 20
66.9229069806
 30
0.0
 40
1.999999999999998
100
AcDbArc
 50
225.0
 51
24.2744411344
  0
LINE
  5
15B
330
1F
100
AcDbEntity
  8
0
  6
Continuous
 62
     7
370
    25
100
AcDbLine
 10
-85.0147186258
 20
75.1152236891
 30
0.0
 11
-75.4081883548
 21
65.5086934182
 31
0.0
  0
ARC
  5
15C
330
1F
100
AcDbEntity
  8
0
  6
Continuous
 62
     7
370
    25
100
AcDbCircle
 10
-82.186291501
 20
77.9436508139
 30
0.0
 40
4.000000000000002
100
AcDbArc
 50
135.0
 51
225.0
  0
CIRCLE
  5
15D
330
1F
100
AcDbEntity
  8
0
  6
Continuous
 62
     7
370
    25
100
AcDbCircle
 10
-77.9436508139
 20
93.5
 30
0.0
 40
1.350000000000009
  0
CIRCLE
  5
15E
330
1F
100
AcDbEntity
  8
0
  6
Continuous
 62
     7
370
    25
100
AcDbCircle
 10
77.9436508139
 20
-93.5
 30
0.0
 40
1.350000000000009
  0
CIRCLE
  5
15F
330
1F
100
AcDbEntity
  8
0
  6
Continuous
 62
     7
370
    25
100
AcDbCircle
 10
93.5
 20
-77.9436508139
 30
0.0
 40
1.350000000000009
  0
CIRCLE
  5
160
330
1F
100
AcDbEntity
  8
0
  6
Continuous
 62
     7
370
    25
100
AcDbCircle
 10
-46.1238456605
 20
-61.6801948466
 30
0.0
 40
2.109999999999999
  0
CIRCLE
  5
161
330
1F
100
AcDbEntity
  8
0
  6
Continuous
 62
     7
370
    25
100
AcDbCircle
 10
-93.5
 20
-77.9436508139
 30
0.0
 40
1.350000000000009
  0
CIRCLE
  5
162
330
1F
100
AcDbEntity
  8
0
  6
Continuous
 62
     7
370
    25
100
AcDbCircle
 10
-77.9436508139
 20
-93.5
 30
0.0
 40
1.350000000000009
  0
CIRCLE
  5
163
330
1F
100
AcDbEntity
  8
0
  6
Continuous
 62
     7
370
    25
100
AcDbCircle
 10
-61.6801948466
 20
-46.1238456605
 30
0.0
 40
2.110000000000007
  0
CIRCLE
  5
164
330
1F
100
AcDbEntity
  8
0
  6
Continuous
 62
     7
370
    25
100
AcDbCircle
 10
46.1238456605
 20
-61.6801948466
 30
0.0
 40
2.109999999999999
  0
CIRCLE
  5
165
330
1F
100
AcDbEntity
  8
0
  6
Continuous
 62
     7
370
    25
100
AcDbCircle
 10
-93.5
 20
77.9436508139
 30
0.0
 40
1.349999999999994
  0
CIRCLE
  5
166
330
1F
100
AcDbEntity
  8
0
  6
Continuous
 62
     7
370
    25
100
AcDbCircle
 10
-46.1238456605
 20
61.6801948466
 30
0.0
 40
2.109999999999999
  0
CIRCLE
  5
167
330
1F
100
AcDbEntity
  8
0
  6
Continuous
 62
     7
370
    25
100
AcDbCircle
 10
46.1238456605
 20
61.6801948466
 30
0.0
 40
2.109999999999999
  0
CIRCLE
  5
168
330
1F
100
AcDbEntity
  8
0
  6
Continuous
 62
     7
370
    25
100
AcDbCircle
 10
93.5
 20
77.9436508139
 30
0.0
 40
1.349999999999994
  0
CIRCLE
  5
169
330
1F
100
AcDbEntity
  8
0
  6
Continuous
 62
     7
370
    25
100
AcDbCircle
 10
61.6801948466
 20
-46.1238456605
 30
0.0
 40
2.110000000000007
  0
CIRCLE
  5
16A
330
1F
100
AcDbEntity
  8
0
  6
Continuous
 62
     7
370
    25
100
AcDbCircle
 10
61.6801948466
 20
46.1238456605
 30
0.0
 40
2.110000000000007
  0
CIRCLE
  5
16B
330
1F
100
AcDbEntity
  8
0
  6
Continuous
 62
     7
370
    25
100
AcDbCircle
 10
-61.6801948466
 20
46.1238456605
 30
0.0
 40
2.110000000000007
  0
CIRCLE
  5
16C
330
1F
100
AcDbEntity
  8
0
  6
Continuous
 62
     7
370
    25
100
AcDbCircle
 10
77.9436508139
 20
93.5
 30
0.0
 40
1.350000000000009
  0
CIRCLE
  5
16D
330
1F
100
AcDbEntity
  8
0
  6
Continuous
 62
     7
370
    25
100
AcDbCircle
 10
-62.5
 20
15.0
 30
0.0
 40
1.599999999999998
  0
CIRCLE
  5
16E
330
1F
100
AcDbEntity
  8
0
  6
Continuous
 62
     7
370
    25
100
AcDbCircle
 10
-62.5
 20
-15.0
 30
0.0
 40
1.599999999999998
  0
CIRCLE
  5
16F
330
1F
100
AcDbEntity
  8
0
  6
Continuous
 62
     7
370
    25
100
AcDbCircle
 10
62.5
 20
-15.0
 30
0.0
 40
1.599999999999998
  0
CIRCLE
  5
170
330
1F
100
AcDbEntity
  8
0
  6
Continuous
 62
     7
370
    25
100
AcDbCircle
 10
62.5
 20
15.0
 30
0.0
 40
1.599999999999998
  0
LINE
  5
171
330
1F
100
AcDbEntity
  8
0
  6
Continuous
 62
     7
370
    25
100
AcDbLine
 10
-43.5548811177
 20
-26.2660721974
 30
0.0
 11
-42.601272507
 21
-13.1202261811
 31
0.0
  0
ARC
  5
172
330
1F
100
AcDbEntity
  8
0
  6
Continuous
 62
     7
370
    25
100
AcDbCircle
 10
-39.6091347168
 20
-13.3372778914
 30
0.0
 40
3.000000000001153
100
AcDbArc
 50
109.2636729598
 51
175.8509925689
  0
ARC
  5
173
330
1F
100
AcDbEntity
  8
0
  6
Continuous
 62
     7
370
    25
100
AcDbCircle
 10
-42.1
 20
-6.21
 30
0.0
 40
4.550000000000002
100
AcDbArc
 50
289.2636729598
 51
296.0641542335
  0
ARC
  5
174
330
1F
100
AcDbEntity
  8
0
  6
Continuous
 62
     7
370
    25
100
AcDbCircle
 10
-38.7827017337
 20
-12.9921849144
 30
0.0
 40
3.000000000001157
100
AcDbArc
 50
49.4768346243
 51
116.0641542335
  0
LINE
  5
175
330
1F
100
AcDbEntity
  8
0
  6
Continuous
 62
     7
370
    25
100
AcDbLine
 10
-36.8334354241
 20
-10.7117549431
 30
0.0
 11
-21.0301540521
 21
-24.2200864193
 31
0.0
  0
ARC
  5
176
330
1F
100
AcDbEntity
  8
0
  6
Continuous
 62
     7
370
    25
100
AcDbCircle
 10
-22.0047872069
 20
-25.360301405
 30
0.0
 40
1.500000000000003
100
AcDbArc
 50
272.8954505294
 51
49.4768346243
  0
LINE
  5
177
330
1F
100
AcDbEntity
  8
0
  6
Continuous
 62
     7
370
    25
100
AcDbLine
 10
-21.9290167493
 20
-26.8583864619
 30
0.0
 11
-41.9830417651
 21
-27.8726831095
 31
0.0
  0
ARC
  5
178
330
1F
100
AcDbEntity
  8
0
  6
Continuous
 62
     7
370
    25
100
AcDbCircle
 10
-42.0588122227
 20
-26.3745980526
 30
0.0
 40
1.499999999999996
100
AcDbArc
 50
175.8509925689
 51
272.8954505294
  0
ARC
  5
179
330
1F
100
AcDbEntity
  8
0
  6
Continuous
 62
     7
370
    25
100
AcDbCircle
 10
-42.7149201219
 20
-35.4192871596
 30
0.0
 40
1.500000000000009
100
AcDbArc
 50
92.8954505294
 51
175.8509925689
  0
LINE
  5
17A
330
1F
100
AcDbEntity
  8
0
  6
Continuous
 62
     7
370
    25
100
AcDbLine
 10
-23.5948590478
 20
-32.9503113436
 30
0.0
 11
-42.7906905795
 21
-33.9212021027
 31
0.0
  0
ARC
  5
17B
330
1F
100
AcDbEntity
  8
0
  6
Continuous
 62
     7
370
    25
100
AcDbCircle
 10
-23.5190885903
 20
-34.4483964005
 30
0.0
 40
1.499999999999999
100
AcDbArc
 50
307.599942704
 51
92.8954505294
  0
LINE
  5
17C
330
1F
100
AcDbEntity
  8
0
  6
Continuous
 62
     7
370
    25
100
AcDbLine
 10
-41.9763719308
 20
-50.5556342328
 30
0.0
 11
-22.6038720329
 21
-35.6368317808
 31
0.0
  0
ARC
  5
17D
330
1F
100
AcDbEntity
  8
0
  6
Continuous
 62
     7
370
    25
100
AcDbCircle
 10
-43.196660674
 20
-48.9710537258
 30
0.0
 40
2.000000000000011
100
AcDbArc
 50
175.8509925689
 51
307.599942704
  0
LINE
  5
17E
330
1F
100
AcDbEntity
  8
0
  6
Continuous
 62
     7
370
    25
100
AcDbLine
 10
-45.1914192007
 20
-48.8263525856
 30
0.0
 11
-44.210989017
 21
-35.3107613045
 31
0.0
  0
ARC
  5
17F
330
1F
100
AcDbEntity
  8
0
  6
Continuous
 62
     7
370
    25
100
AcDbCircle
 10
27.8957711467
 20
-25.9635559198
 30
0.0
 40
1.499999999999998
100
AcDbArc
 50
345.3311565241
 51
125.4338660397
  0
LINE
  5
180
330
1F
100
AcDbEntity
  8
0
  6
Continuous
 62
     7
370
    25
100
AcDbLine
 10
28.2033004811
 20
-30.7121452302
 30
0.0
 11
29.3468795455
 21
-26.3434038035
 31
0.0
  0
ARC
  5
181
330
1F
100
AcDbEntity
  8
0
  6
Continuous
 62
     7
370
    25
100
AcDbCircle
 10
26.2684892826
 20
-30.2056813853
 30
0.0
 40
1.999999999999997
100
AcDbArc
 50
273.1099880897
 51
345.3311565241
  0
ARC
  5
182
330
1F
100
AcDbEntity
  8
0
  6
Continuous
 62
     7
370
    25
100
AcDbCircle
 10
26.6238456605
 20
-36.7460347278
 30
0.0
 40
4.550000000000005
100
AcDbArc
 50
93.1099880897
 51
106.9368708475
  0
ARC
  5
183
330
1F
100
AcDbEntity
  8
0
  6
Continuous
 62
     7
370
    25
100
AcDbCircle
 10
24.7157136786
 20
-30.4801323714
 30
0.0
 40
1.999999999999997
100
AcDbArc
 50
214.7157024131
 51
286.9368708475
  0
LINE
  5
184
330
1F
100
AcDbEntity
  8
0
  6
Continuous
 62
     7
370
    25
100
AcDbLine
 10
21.1857924173
 20
-28.8970853653
 30
0.0
 11
23.0717376905
 21
-31.6191420072
 31
0.0
  0
LINE
  5
185
330
1F
100
AcDbEntity
  8
0
  6
Continuous
 62
     7
370
    25
100
AcDbLine
 10
27.0261268388
 20
-24.7413780368
 30
0.0
 11
21.1857924173
 21
-28.8970853653
 31
0.0
  0
ARC
  5
186
330
1F
100
AcDbEntity
  8
0
  6
Continuous
 62
     7
370
    25
100
AcDbCircle
 10
-7.3015948226
 20
-53.9988307285
 30
0.0
 40
5.615913011059675
100
AcDbArc
 50
24.2797473249
 51
25.8057089387
  0
ARC
  5
187
330
1F
100
AcDbEntity
  8
0
  6
Continuous
 62
     7
370
    25
100
AcDbCircle
 10
0.455099715
 20
-50.2481445427
 30
0.0
 40
3.0
100
AcDbArc
 50
180.0
 51
205.8057089387
  0
LINE
  5
188
330
1F
100
AcDbEntity
  8
0
  6
Continuous
 62
     7
370
    25
100
AcDbLine
 10
-2.544900285
 20
-40.1931485748
 30
0.0
 11
-2.544900285
 21
-50.2481445427
 31
0.0
  0
ARC
  5
189
330
1F
100
AcDbEntity
  8
0
  6
Continuous
 62
     7
370
    25
100
AcDbCircle
 10
0.455099715
 20
-40.1931485748
 30
0.0
 40
3.0
100
AcDbArc
 50
165.8805032275
 51
180.0
  0
ARC
  5
18A
330
1F
100
AcDbEntity
  8
0
  6
Continuous
 62
     7
370
    25
100
AcDbCircle
 10
-6.3686668212
 20
-38.4766681679
 30
0.0
 40
4.036341004248407
100
AcDbArc
 50
345.8805032275
 51
349.6068523581
  0
ARC
  5
18B
330
1F
100
AcDbEntity
  8
0
  6
Continuous
 62
     7
370
    25
100
AcDbCircle
 10
0.5522293104
 20
-39.7460347278
 30
0.0
 40
3.00000000000002
100
AcDbArc
 50
90.0
 51
169.6068523581
  0
LINE
  5
18C
330
1F
100
AcDbEntity
  8
0
  6
Continuous
 62
     7
370
    25
100
AcDbLine
 10
19.6954620106
 20
-36.7460347278
 30
0.0
 11
0.5522293104
 21
-36.7460347278
 31
0.0
  0
ARC
  5
18D
330
1F
100
AcDbEntity
  8
0
  6
Continuous
 62
     7
370
    25
100
AcDbCircle
 10
19.6954620106
 20
-39.7460347278
 30
0.0
 40
3.000000000000007
100
AcDbArc
 50
23.4126803908
 51
90.0
  0
ARC
  5
18E
330
1F
100
AcDbEntity
  8
0
  6
Continuous
 62
     7
370
    25
100
AcDbCircle
 10
26.6238456605
 20
-36.7460347278
 30
0.0
 40
4.550000000000008
100
AcDbArc
 50
203.4126803908
 51
246.5873196092
  0
ARC
  5
18F
330
1F
100
AcDbEntity
  8
0
  6
Continuous
 62
     7
370
    25
100
AcDbCircle
 10
23.6238456605
 20
-43.6744183777
 30
0.0
 40
3.000000000000002
100
AcDbArc
 50
0.0
 51
66.5873196092
  0
LINE
  5
190
330
1F
100
AcDbEntity
  8
0
  6
Continuous
 62
     7
370
    25
100
AcDbLine
 10
26.6238456605
 20
-46.5276510779
 30
0.0
 11
26.6238456605
 21
-43.6744183777
 31
0.0
  0
ARC
  5
191
330
1F
100
AcDbEntity
  8
0
  6
Continuous
 62
     7
370
    25
100
AcDbCircle
 10
23.6238456605
 20
-46.5276510779
 30
0.0
 40
3.0
100
AcDbArc
 50
293.4126803908
 51
0.0
  0
ARC
  5
192
330
1F
100
AcDbEntity
  8
0
  6
Continuous
 62
     7
370
    25
100
AcDbCircle
 10
26.6238456605
 20
-53.4560347278
 30
0.0
 40
4.549999999999999
100
AcDbArc
 50
113.4126803908
 51
156.5873196092
  0
ARC
  5
193
330
1F
100
AcDbEntity
  8
0
  6
Continuous
 62
     7
370
    25
100
AcDbCircle
 10
19.6954620106
 20
-50.4560347278
 30
0.0
 40
3.000000000000009
100
AcDbArc
 50
270.0000000002
 51
336.5873196092
  0
LINE
  5
194
330
1F
100
AcDbEntity
  8
0
  6
Continuous
 62
     7
370
    25
100
AcDbLine
 10
0.5522293104
 20
-53.4560347279
 30
0.0
 11
19.6954620106
 21
-53.4560347278
 31
0.0
  0
ARC
  5
195
330
1F
100
AcDbEntity
  8
0
  6
Continuous
 62
     7
370
    25
100
AcDbCircle
 10
0.5522293104
 20
-50.4560347279
 30
0.0
 40
3.000000000000014
100
AcDbArc
 50
204.2797473249
 51
270.0000000002
  0
LINE
  5
196
330
1F
100
AcDbEntity
  8
0
  6
Continuous
 62
     7
370
    25
100
AcDbLine
 10
92.3380119205
 20
36.1493808743
 30
0.0
 11
92.3380119205
 21
50.2322418298
 31
0.0
  0
ARC
  5
197
330
1F
100
AcDbEntity
  8
0
  6
Continuous
 62
     7
370
    25
100
AcDbCircle
 10
88.3380119205
 20
36.1493808743
 30
0.0
 40
4.0
100
AcDbArc
 50
269.9721874726
 51
0.0
  0
LINE
  5
198
330
1F
100
AcDbEntity
  8
0
  6
Continuous
 62
     7
370
    25
100
AcDbLine
 10
88.3360702398
 20
32.1493813455
 30
0.0
 11
70.8876523228
 21
32.1578511603
 31
0.0
  0
ARC
  5
199
330
1F
100
AcDbEntity
  8
0
  6
Continuous
 62
     7
370
    25
100
AcDbCircle
 10
70.8895940035
 20
36.157850689
 30
0.0
 40
3.999999999999994
100
AcDbArc
 50
180.5703003974
 51
269.9721874726
  0
LINE
  5
19A
330
1F
100
AcDbEntity
  8
0
  6
Continuous
 62
     7
370
    25
100
AcDbLine
 10
66.8106904908
 20
44.0647989973
 30
0.0
 11
66.8897921509
 21
36.1180368678
 31
0.0
  0
ARC
  5
19B
330
1F
100
AcDbEntity
  8
0
  6
Continuous
 62
     7
370
    25
100
AcDbCircle
 10
71.8104428065
 20
44.1145662738
 30
0.0
 40
5.000000000000014
100
AcDbArc
 50
135.8036590968
 51
180.5703003974
  0
LINE
  5
19C
330
1F
100
AcDbEntity
  8
0
  6
Continuous
 62
     7
370
    25
100
AcDbLine
 10
68.2256671593
 20
47.6001628596
 30
0.0
 11
76.8854157555
 21
56.5063156843
 31
0.0
  0
ARC
  5
19D
330
1F
100
AcDbEntity
  8
0
  6
Continuous
 62
     7
370
    25
100
AcDbCircle
 10
83.3380119205
 20
50.2322418298
 30
0.0
 40
9.00000000000001
100
AcDbArc
 50
0.0
 51
135.8036590968
  0
CIRCLE
  5
19E
330
1F
100
AcDbEntity
  8
0
  6
Continuous
 62
     7
370
    25
100
AcDbCircle
 10
-87.3192339412
 20
-23.9684921748
 30
0.0
 40
2.500000000000007
  0
CIRCLE
  5
19F
330
1F
100
AcDbEntity
  8
0
  6
Continuous
 62
     7
370
    25
100
AcDbCircle
 10
-79.5192339412
 20
-23.9684921748
 30
0.0
 40
2.500000000000007
  0
CIRCLE
  5
1A0
330
1F
100
AcDbEntity
  8
0
  6
Continuous
 62
     7
370
    25
100
AcDbCircle
 10
87.3567898998
 20
-23.9684921748
 30
0.0
 40
2.500000000000007
  0
CIRCLE
  5
1A1
330
1F
100
AcDbEntity
  8
0
  6
Continuous
 62
     7
370
    25
100
AcDbCircle
 10
79.5567898998
 20
-23.9684921748
 30
0.0
 40
2.500000000000007
  0
CIRCLE
  5
1A2
330
1F
100
AcDbEntity
  8
0
  6
Continuous
 62
     7
370
    25
100
AcDbCircle
 10
-87.3192339412
 20
24.0315078252
 30
0.0
 40
2.500000000000011
  0
CIRCLE
  5
1A3
330
1F
100
AcDbEntity
  8
0
  6
Continuous
 62
     7
370
    25
100
AcDbCircle
 10
-79.5192339412
 20
24.0315078252
 30
0.0
 40
2.500000000000011
  0
CIRCLE
  5
1A4
330
1F
100
AcDbEntity
  8
0
  6
Continuous
 62
     7
370
    25
100
AcDbCircle
 10
79.5567898998
 20
24.0315078252
 30
0.0
 40
2.500000000000011
  0
CIRCLE
  5
1A5
330
1F
100
AcDbEntity
  8
0
  6
Continuous
 62
     7
370
    25
100
AcDbCircle
 10
87.3567898998
 20
24.0315078252
 30
0.0
 40
2.500000000000011
  0
ENDSEC
  0
SECTION
  2
OBJECTS
  0
DICTIONARY
  5
C
330
0
100
AcDbDictionary
281
     1
  3
ACAD_GROUP
350
D
  3
ACAD_LAYOUT
350
1A
  3
ACAD_MLINESTYLE
350
17
  3
ACAD_PLOTSETTINGS
350
19
  3
ACAD_PLOTSTYLENAME
350
E
  3
ACAD_SCALELIST
350
47
  3
DWGPROPS
350
1A6
  0
DICTIONARY
  5
D
102
{ACAD_REACTORS
330
C
102
}
330
C
100
AcDbDictionary
281
     1
  0
DICTIONARY
  5
1A
102
{ACAD_REACTORS
330
C
102
}
330
C
100
AcDbDictionary
281
     1
  3
Layout1
350
1E
  3
Layout2
350
26
  3
Model
350
22
  0
DICTIONARY
  5
17
102
{ACAD_REACTORS
330
C
102
}
330
C
100
AcDbDictionary
281
     1
  3
Standard
350
18
  0
DICTIONARY
  5
19
102
{ACAD_REACTORS
330
C
102
}
330
C
100
AcDbDictionary
281
     1
  0
ACDBDICTIONARYWDFLT
  5
E
102
{ACAD_REACTORS
330
C
102
}
330
C
100
AcDbDictionary
281
     1
  3
Normal
350
F
100
AcDbDictionaryWithDefault
340
F
  0
DICTIONARY
  5
47
102
{ACAD_REACTORS
330
C
102
}
330
C
100
AcDbDictionary
281
     1
  3
A0
350
48
  3
A1
350
49
  3
A2
350
4A
  3
A3
350
4B
  3
A4
350
4C
  3
A5
350
4D
  3
A6
350
4E
  3
A7
350
4F
  3
A8
350
50
  3
A9
350
51
  3
B0
350
52
  3
B1
350
53
  3
B2
350
54
  3
B3
350
55
  3
B4
350
56
  3
B5
350
57
  3
B6
350
58
  0
XRECORD
  5
1A6
102
{ACAD_REACTORS
330
C
102
}
330
C
100
AcDbXrecord
280
     1
  1
DWGPROPS COOKIE
  2

  3

  4

  6

  7

  8
win  10
  9

300
=
301
=
302
=
303
=
304
=
305
=
306
=
307
=
308
=
309
=
 40
0.0
 41
2461114.902870452
 42
2461114.902895347
  1

 90
        0
  0
LAYOUT
  5
1E
102
{ACAD_REACTORS
330
1A
102
}
330
1A
100
AcDbPlotSettings
  1

  2
none_device
  4

  6

 40
0.0
 41
0.0
 42
0.0
 43
0.0
 44
0.0
 45
0.0
 46
0.0
 47
0.0
 48
0.0
 49
0.0
140
0.0
141
0.0
142
1.0
143
1.0
 70
   688
 72
     1
 73
     0
 74
     5
  7

 75
    16
147
1.0
148
0.0
149
0.0
100
AcDbLayout
  1
Layout1
 70
     1
 71
     1
 10
0.0
 20
0.0
 11
420.0
 21
297.0
 12
0.0
 22
0.0
 32
0.0
 14
1.0000000000E+20
 24
1.0000000000E+20
 34
1.0000000000E+20
 15
-1.0000000000E+20
 25
-1.0000000000E+20
 35
-1.0000000000E+20
146
0.0
 13
0.0
 23
0.0
 33
0.0
 16
1.0
 26
0.0
 36
0.0
 17
0.0
 27
1.0
 37
0.0
 76
     0
330
1B
  0
LAYOUT
  5
26
102
{ACAD_REACTORS
330
1A
102
}
330
1A
100
AcDbPlotSettings
  1

  2
none_device
  4

  6

 40
0.0
 41
0.0
 42
0.0
 43
0.0
 44
0.0
 45
0.0
 46
0.0
 47
0.0
 48
0.0
 49
0.0
140
0.0
141
0.0
142
1.0
143
1.0
 70
   688
 72
     1
 73
     0
 74
     5
  7

 75
    16
147
1.0
148
0.0
149
0.0
100
AcDbLayout
  1
Layout2
 70
     1
 71
     2
 10
0.0
 20
0.0
 11
0.0
 21
0.0
 12
0.0
 22
0.0
 32
0.0
 14
0.0
 24
0.0
 34
0.0
 15
0.0
 25
0.0
 35
0.0
146
0.0
 13
0.0
 23
0.0
 33
0.0
 16
1.0
 26
0.0
 36
0.0
 17
0.0
 27
1.0
 37
0.0
 76
     0
330
23
  0
LAYOUT
  5
22
102
{ACAD_REACTORS
330
1A
102
}
330
1A
100
AcDbPlotSettings
  1

  2
none_device
  4
ANSI_A_(11.00_x_8.50_Inches)
  6

 40
6.35
 41
19.05
 42
6.35000508
 43
19.05000254
 44
279.4
 45
215.9
 46
133.34999746
 47
88.89999873
 48
0.0
 49
0.0
140
0.0
141
0.0
142
0.0431538462
143
1.0
 70
  1696
 72
     0
 73
     0
 74
     0
  7

 75
     0
147
0.0179189148
148
-1300.4909072572
149
0.0
100
AcDbLayout
  1
Model
 70
     1
 71
     0
 10
0.0
 20
0.0
 11
420.0
 21
297.0
 12
0.0
 22
0.0
 32
0.0
 14
-97.5
 24
-97.5
 34
0.0
 15
97.5
 25
97.5
 35
0.0
146
0.0
 13
0.0
 23
0.0
 33
0.0
 16
1.0
 26
0.0
 36
0.0
 17
0.0
 27
1.0
 37
0.0
 76
     0
330
1F
331
29
  0
MLINESTYLE
  5
18
102
{ACAD_REACTORS
330
17
102
}
330
17
100
AcDbMlineStyle
  2
Standard
 70
     0
  3

 62
   256
 51
90.0
 52
90.0
 71
     2
 49
0.5
 62
   256
  6
BYLAYER
 49
-0.5
 62
   256
  6
BYLAYER
  0
ACDBPLACEHOLDER
  5
F
102
{ACAD_REACTORS
330
E
102
}
330
E
  0
SCALE
  5
48
102
{ACAD_REACTORS
330
47
102
}
330
47
100
AcDbScale
 70
     0
300
1:1
140
1.0
141
1.0
290
     1
  0
SCALE
  5
49
102
{ACAD_REACTORS
330
47
102
}
330
47
100
AcDbScale
 70
     0
300
1:2
140
1.0
141
2.0
290
     0
  0
SCALE
  5
4A
102
{ACAD_REACTORS
330
47
102
}
330
47
100
AcDbScale
 70
     0
300
1:4
140
1.0
141
4.0
290
     0
  0
SCALE
  5
4B
102
{ACAD_REACTORS
330
47
102
}
330
47
100
AcDbScale
 70
     0
300
1:5
140
1.0
141
5.0
290
     0
  0
SCALE
  5
4C
102
{ACAD_REACTORS
330
47
102
}
330
47
100
AcDbScale
 70
     0
300
1:8
140
1.0
141
8.0
290
     0
  0
SCALE
  5
4D
102
{ACAD_REACTORS
330
47
102
}
330
47
100
AcDbScale
 70
     0
300
1:10
140
1.0
141
10.0
290
     0
  0
SCALE
  5
4E
102
{ACAD_REACTORS
330
47
102
}
330
47
100
AcDbScale
 70
     0
300
1:16
140
1.0
141
16.0
290
     0
  0
SCALE
  5
4F
102
{ACAD_REACTORS
330
47
102
}
330
47
100
AcDbScale
 70
     0
300
1:20
140
1.0
141
20.0
290
     0
  0
SCALE
  5
50
102
{ACAD_REACTORS
330
47
102
}
330
47
100
AcDbScale
 70
     0
300
1:30
140
1.0
141
30.0
290
     0
  0
SCALE
  5
51
102
{ACAD_REACTORS
330
47
102
}
330
47
100
AcDbScale
 70
     0
300
1:40
140
1.0
141
40.0
290
     0
  0
SCALE
  5
52
102
{ACAD_REACTORS
330
47
102
}
330
47
100
AcDbScale
 70
     0
300
1:50
140
1.0
141
50.0
290
     0
  0
SCALE
  5
53
102
{ACAD_REACTORS
330
47
102
}
330
47
100
AcDbScale
 70
     0
300
1:100
140
1.0
141
100.0
290
     0
  0
SCALE
  5
54
102
{ACAD_REACTORS
330
47
102
}
330
47
100
AcDbScale
 70
     0
300
2:1
140
2.0
141
1.0
290
     0
  0
SCALE
  5
55
102
{ACAD_REACTORS
330
47
102
}
330
47
100
AcDbScale
 70
     0
300
4:1
140
4.0
141
1.0
290
     0
  0
SCALE
  5
56
102
{ACAD_REACTORS
330
47
102
}
330
47
100
AcDbScale
 70
     0
300
8:1
140
8.0
141
1.0
290
     0
  0
SCALE
  5
57
102
{ACAD_REACTORS
330
47
102
}
330
47
100
AcDbScale
 70
     0
300
10:1
140
10.0
141
1.0
290
     0
  0
SCALE
  5
58
102
{ACAD_REACTORS
330
47
102
}
330
47
100
AcDbScale
 70
     0
300
100:1
140
100.0
141
1.0
290
     0
  0
ENDSEC
  0
EOF
